<?xml version="1.0" encoding="utf-8"?>
<svg version="1.1" id="Layer_1" xmlns="http://www.w3.org/2000/svg" xmlns:xlink="http://www.w3.org/1999/xlink" width="649px" height="127px">
<rdf:RDF xmlns:rdf="http://www.w3.org/1999/02/22-rdf-syntax-ns#" xmlns:schema="http://schema.org/">
	<rdf:Description rdf:about="Made by Anton Barchukov. YOU CANNOT USE OR DISTRUBUTE THIS IMAGE">
		<schema:license rdf:resource="https://creativecommons.org/licenses/by-nc-nd/4.0/"/>
	</rdf:Description>
</rdf:RDF>
<g>
	<path fill="#FDCA00" stroke="#FDCA00" stroke-width="8" stroke-miterlimit="10" d="M63.7,79.9c5.8-9.8,11.2-19.4,19-27.7
		c-2-1-4-1.5-6.1-2c-15.4-3.8-31-6.8-46.7-9.4c-5.9-1-11.8-1.6-17.7-2.6c-1.1-0.2-2.2-0.3-3.2-0.8c1.8-1.5,3.8-2.5,5.8-3.5
		c6.6-3.5,13.3-7,20.2-9.7c8.9-3.5,18-6.4,27.3-8.4c10.6-2.3,21.3-3.6,32.1-4.3c0.7,0,0.8-0.3,0.7-0.9C95,9,94.9,7.4,94.8,5.8
		c-0.1-0.5,0.1-0.7,0.6-0.7c7.2-0.4,14.3,0.1,21.1,2.6c3.1,1.1,6,2.5,8.7,4.3c2.2,1.5,4.7,2.4,7.3,3.1c5,1.3,10.1,2.5,15.1,4.1
		c3.2,1,6.5,2,9.8,2.9c0.8,0.2,1.2,0.1,1.4-0.8c0.3-1.4,0.7-2.7,1.1-4.1c0.1-0.3,0.1-0.6,0.6-0.5c5.5,1.6,10.9,3.3,15.5,6.8
		c2.6,1.9,4.5,4.4,5.8,7.2c1.3,2.5,3.2,4.2,5.6,5.5c7.1,3.9,12.6,9.3,16.3,16.4c0.5,0.9,1.1,1.5,2.1,2c1.8,0.8,3.3,2,4.6,3.5
		c1.8,2,3.7,3.9,5.3,6.1c0.4,0.5,0.5,0.9,0,1.5c-0.7,0.9-1.5,1.8-2.4,2.6c-0.3,0.3-0.5,0.5-0.4,0.9c0.7,4.8-1.4,8.6-4.4,12.1
		c-1.3,1.5-2.6,2.9-4.3,3.9c-1.4,0.9-2.4,2.1-3.4,3.4c-3,3.8-6.7,6.8-11.5,8.4c-0.1,0-0.2,0-0.4,0.1c-0.1-0.7-0.1-1.5-0.3-2.2
		c-0.5-1.4-1.5-2-2.9-1.6c-2.2,0.6-3.9,2-5.7,3.3c-2.3,1.6-3.8,3.8-5.4,6c-0.9,1.2-1.7,2.4-2.6,3.6c-0.4,0.5-0.2,0.7,0.3,0.9
		c0.9,0.3,1.9,0.5,2.5,1.3c-4.7,5.4-23.3,12.7-33.7,13.3c1.9-3.5,0.7-6.8-0.9-9.9c-2.2-4.3-5.3-8-9.2-11.1c-1.1-0.9-1.2-0.9-2.2,0.1
		c-1.6,1.4-3.1,2.9-4.7,4.3c0-0.9,0.1-2,0.1-3.1c0.2-3.3,0.4-6.6,0.6-9.9c0-0.7-0.1-1-0.9-0.7c-3.6,1.3-6.9,3.3-10.3,5.1
		c-6.3,3.4-11.8,7.9-17.4,12.2c-0.8,0.6-1.6,1.3-2.4,1.9c-0.4,0.3-0.9,0.6-1.5,0.6c0.3-2.4,0.6-4.7,1-7.1c1.2-7,3.1-13.9,5.7-20.5
		c0.4-1,1.2-1.9,1.5-2.9c0.2-0.7,0.2-1-0.6-1.3c-1.6-0.5-3.3-0.6-4.9-0.7c-6.4-0.3-12.8,0.1-19.2,0.5c-3.7,0.2-7.5,0.5-11.2,0.8
		C64.6,79.9,64.3,79.9,63.7,79.9z M135.2,26.1c-0.3-0.2-0.6-0.4-0.8-0.7c-6-5.4-12.4-10.1-20.1-12.9c-4.1-1.5-8.3-2.5-12.7-2.5
		c-0.6,0-0.9,0.1-0.7,0.8c0.2,0.6,0.2,1.3,0.4,1.9c1.7,5.9,4.5,11.3,8.6,16c1.3,1.5,2.7,2.9,4.4,4.3c-0.3-1.4-0.8-2.6-1.3-3.7
		c-1.1-2.6-2.1-5.1-2.4-7.9c-0.1-0.7,0.1-0.8,0.8-0.6c1.6,0.5,3,1.2,4.4,2.1c4.6,2.9,8.5,6.5,11.8,10.7c1.6,2,3,4.2,3.7,6.7
		c0.2,0.7,0.2,1.1-0.8,1.1c-1.7-0.1-3.5-0.1-5.2-0.5c-10.2-1.9-18.7-7-26.2-13.8c-3-2.7-5.3-6-7.7-9.2c-0.4-0.5-0.8-0.8-1.5-0.7
		c-1.9,0.2-3.7,0.3-5.6,0.4c-10.3,0.9-20.3,2.9-30.1,5.8c-7.1,2.1-14,4.6-20.7,7.4c-2.1,0.9-4.2,1.9-6.3,2.8
		c-0.3,0.1-0.7,0.3-0.6,0.8c0.1,0.4,0.5,0.4,0.9,0.5c4.2,0.6,8.3,1.3,12.5,2.1c9.2,1.7,18.3,3.4,27.4,5.6c8.4,2,16.9,3.9,25.1,6.5
		c1.1,0.4,1.2,0.4,0.5,1.4c-1.4,1.9-3.2,3.4-5,4.9c-5.7,5.1-10.2,11-14.3,17.3c-0.3,0.4-0.6,0.8-0.6,1.4c0.3,0,0.6,0,0.8,0
		c4.3-0.2,8.6-0.5,12.9-0.7c5-0.2,10,0,15,0.6c2.2,0.2,4.5,0.5,6.7,1.1c1.1,0.3,1.1,0.3,0.6,1.3c-3.3,6.2-6,12.8-7.6,19.6
		c-0.1,0.6-0.6,1.5-0.1,1.9c0.4,0.3,1.2-0.4,1.8-0.8c3.9-2.6,7.8-5,11.9-7.3c4.9-2.7,9.9-5.1,15.5-6.2c1.4-0.3,2.9-0.5,4.5-0.4
		c-2.9,1.4-4.6,4.7-4.1,7.7c1.7-1,3.1-2.5,4.6-3.7c3.6-2.8,7.4-5.3,11.6-7.1c1.9-0.8,3.8-1.6,5.9-1.3c1.4,0.2,2.8,0.2,4.2,0.4
		c3.7,0.5,7.4,0.4,11,1.8c4.6,1.7,9.5,2.1,14.4,1.5c5.8-0.8,9.9-3.8,12.4-9c1-2.2,0.7-4-1.1-5.6c-2.7-2.3-5.6-4.1-9.1-5
		c-1.5-0.4-3.1-0.8-4.6-1.7c0.3-0.1,0.6-0.2,0.8-0.2c0.3,0,0.6-0.1,0.9-0.1c2.8,0,5.4,0.9,8,1.7c3.7,1.2,7.3,2.6,11.1,3.3
		c2.3,0.4,4.7,0.5,7-0.3c1.2-0.4,1.3-0.7,0.7-1.8c-0.5-1-1.3-1.8-2.2-2.5c-3.1-2.4-6.6-3.9-10.2-5.3c-1.5-0.6-3.1-1.1-4.7-1.7
		c1.5-1,2.8-1.8,4.2-2.7c0.5-0.3,0.6-0.6,0.2-1.1c-1.5-1.8-3.1-3.5-5-4.9c-3.8-2.8-7.4-5.7-11.5-8.1c-0.9-0.5-1.5-1.2-1.7-2.2
		c-0.6-2.7-2-5-4.4-6.6c-0.4-0.3-0.8-0.6-1.2-0.9c-2.2-1.9-4.7-3.2-7.5-4c-0.5-0.1-0.7,0-0.8,0.5c-0.4,1.3-0.3,2.7-0.2,4.1
		c0,0.4,0.4,0.6,0.7,0.7c0.6,0.3,1.2,0.8,1.7,1.2c0.2,0.2,0.2,0.3,0.1,0.5c-0.1,0.2-0.3,0.1-0.4,0.1c-0.2-0.1-0.5-0.1-0.7-0.2
		c-8.2-3.3-16.6-6.1-25.1-8.3c-1.7-0.4-3.4-0.8-5-1.1c-1.2-0.2-1.4,0-0.9,1c0.5,1.2,1,2.3,1.4,3.5C135.3,26,135.2,26.1,135.2,26.1z
		 M167.1,109.1c-0.2-0.1-0.3-0.2-0.5-0.2c-3.4-0.5-6.6-1.4-9.7-2.8c-5.1-2.3-9.1-5.6-11.3-10.7c-0.3-0.6-0.6-0.7-1.1-0.6
		c-1,0.1-2,0.2-3,0.3c-2.1,0.3-4.2,0.7-6,1.8c-0.6,0.4-0.8,0.6-0.1,1.2c2.3,1.8,4.5,3.7,6.5,5.9c3.2,3.7,5.3,7.9,5.3,12.8
		c0,0.7,0.2,0.9,0.9,0.7c5.6-1.3,10.9-3.4,15.9-6.2C165.1,110.8,166.3,110.2,167.1,109.1z M168.3,83.6c0.1,0.6,0.3,1,0.4,1.4
		c0.2,0.9,0.2,2,0.8,2.6c0.6,0.6,1.8,0.1,2.8,0c0.8-0.1,1.1,0.2,1.2,0.9c0.1,0.8,0.1,1.6,0.1,2.4c-0.1,2.1-0.5,2.4,2,1.4
		c2-0.8,3.8-2,5.8-3c2.2-1,4.5-1.8,6.9-2.1c1.6-0.2,2.4,0.4,2.6,2c0.2,1.2,0.4,2.5,0.6,3.8c2.9-2.2,3.7-5.3,5.2-8.2
		c-2,0.2-3.9,0.3-5.8,0.5c-4.3,0.3-8.5,0.7-12.8-0.2C174.8,84.4,171.6,84,168.3,83.6z M195.5,80c0,2.4,0.3,2.6,1.9,2.3
		c0.4-0.1,0.7-0.1,1.1-0.2c5-1.8,7.7-5.5,8.8-10.5c0.3-1.4-0.1-1.8-1.5-2.1c-0.7-0.1-1.3,0-1.9,0.4c-2,1.2-4,2.6-5.5,4.5
		C196.8,76.2,195.6,78.2,195.5,80z M166,99c-6.3,1.5-11.5-0.5-16.2-4.3c0.9,1.8,2.2,3.3,3.6,4.6c2.1,2,4.7,3.4,7.3,4.6
		c2.4,1.1,4.9,1.7,7.6,1.3c1.9-0.3,3.4-1.5,3.8-3.1c-0.4,0.1-0.8,0.2-1.2,0.3c-1.7,0.3-3.3,0.6-5,0.2c-1-0.3-1-0.8-0.8-1.5
		C165.3,100.4,165.6,99.8,166,99z M149.8,94.5c-0.1,0-0.2-0.1-0.2-0.1c0,0-0.1,0.1-0.1,0.1c0.1,0,0.2,0.1,0.2,0.1
		C149.7,94.6,149.8,94.6,149.8,94.5z"/>
	<path fill="#FDCA00" stroke="#FDCA00" stroke-width="8" stroke-miterlimit="10" d="M135.3,26c-0.5-1.2-1-2.3-1.4-3.5
		c-0.4-1-0.3-1.2,0.9-1c1.7,0.3,3.4,0.7,5,1.1c8.6,2.2,16.9,5,25.1,8.3c0.2,0.1,0.4,0.1,0.7,0.2c0.2,0,0.3,0.1,0.4-0.1
		c0.1-0.2,0.1-0.4-0.1-0.5c-0.5-0.5-1-0.9-1.7-1.2c-0.3-0.2-0.7-0.3-0.7-0.7c-0.1-1.4-0.2-2.7,0.2-4.1c0.1-0.5,0.3-0.6,0.8-0.5
		c2.8,0.8,5.3,2.1,7.5,4c0.4,0.3,0.7,0.7,1.2,0.9c2.5,1.6,3.8,3.9,4.4,6.6c0.2,1,0.8,1.7,1.7,2.2c4,2.4,7.7,5.3,11.5,8.1
		c1.9,1.4,3.5,3.1,5,4.9c0.4,0.5,0.4,0.7-0.2,1.1c-1.4,0.8-2.7,1.7-4.2,2.7c1.7,0.6,3.2,1.1,4.7,1.7c3.6,1.4,7.2,2.9,10.2,5.3
		c0.9,0.7,1.7,1.5,2.2,2.5c0.6,1.1,0.5,1.4-0.7,1.8c-2.3,0.8-4.6,0.7-7,0.3c-3.8-0.7-7.5-2.1-11.1-3.3c-2.6-0.9-5.2-1.8-8-1.7
		c-0.3,0-0.6,0-0.9,0.1c-0.2,0-0.4,0.1-0.8,0.2c1.5,0.9,3.1,1.3,4.6,1.7c3.5,0.9,6.4,2.8,9.1,5c1.8,1.5,2.1,3.4,1.1,5.6
		c-2.4,5.2-6.6,8.2-12.4,9c-4.9,0.7-9.9,0.3-14.4-1.5c-3.6-1.4-7.3-1.3-11-1.8c-1.4-0.2-2.8-0.2-4.2-0.4c-2.2-0.3-4.1,0.6-5.9,1.3
		c-4.3,1.7-8,4.2-11.6,7.1c-1.5,1.2-2.9,2.7-4.6,3.7c-0.5-3,1.2-6.3,4.1-7.7c-1.7-0.1-3.1,0.1-4.5,0.4c-5.6,1.1-10.6,3.5-15.5,6.2
		c-4.1,2.3-8,4.7-11.9,7.3c-0.6,0.4-1.4,1.1-1.8,0.8c-0.5-0.3,0-1.2,0.1-1.9c1.6-6.9,4.3-13.4,7.6-19.6c0.5-1,0.6-1-0.6-1.3
		c-2.2-0.6-4.4-0.9-6.7-1.1c-5-0.5-10-0.8-15-0.6c-4.3,0.2-8.6,0.5-12.9,0.7c-0.3,0-0.5,0-0.8,0c0-0.6,0.3-1,0.6-1.4
		c4.1-6.3,8.6-12.3,14.3-17.3c1.7-1.6,3.6-3,5-4.9c0.7-1,0.7-1-0.5-1.4c-8.3-2.6-16.7-4.5-25.1-6.5C58,40.4,48.8,38.7,39.6,37
		c-4.1-0.8-8.3-1.5-12.5-2.1c-0.4,0-0.8,0-0.9-0.5c-0.1-0.4,0.3-0.6,0.6-0.8c2.1-1,4.2-1.9,6.3-2.8C40,28,46.9,25.5,54,23.5
		c9.9-2.9,19.9-4.9,30.1-5.8c1.9-0.2,3.7-0.3,5.6-0.4c0.7-0.1,1.1,0.2,1.5,0.7c2.4,3.2,4.7,6.5,7.7,9.2c7.6,6.8,16,11.8,26.2,13.8
		c1.7,0.3,3.4,0.4,5.2,0.5c1,0,1-0.3,0.8-1.1c-0.7-2.5-2.1-4.6-3.7-6.7c-3.3-4.2-7.2-7.8-11.8-10.7c-1.4-0.9-2.8-1.6-4.4-2.1
		c-0.6-0.2-0.8-0.1-0.8,0.6c0.3,2.8,1.3,5.4,2.4,7.9c0.5,1.1,1,2.3,1.3,3.7c-1.7-1.4-3.1-2.8-4.4-4.3c-4.1-4.7-6.9-10.1-8.6-16
		c-0.2-0.6-0.2-1.3-0.4-1.9c-0.2-0.7,0.1-0.8,0.7-0.8c4.4,0,8.6,1,12.7,2.5c7.7,2.8,14.1,7.5,20.1,12.9c0.3,0.2,0.6,0.4,0.8,0.7
		c0,0.1,0.1,0.2,0.2,0.1C135.4,26.2,135.3,26.1,135.3,26z M178.9,53.5c-1.6,0-3.1,0-4.6,0c-3.3,0.1-6.4-0.6-9.5-1.9
		c-1.9-0.8-3.9-1.6-5.9-2c-3.7-0.9-7.5-1.3-11.2-0.4c-1.9,0.5-3.5,1.4-4.3,3.3c-0.5,1.2-0.4,1.4,0.9,1.7c0.5,0.1,1.1,0.3,1.6,0.4
		c5.7,1.1,11.5,1.9,17.3,2.7c3.3,0.5,6.7,0.9,10,0.2C175.7,57.1,177.7,56.1,178.9,53.5z"/>
	<path fill="#FDCA00" stroke="#FDCA00" stroke-width="8" stroke-miterlimit="10" d="M167.1,109.1c-0.9,1-2,1.7-3.1,2.3
		c-5,2.8-10.3,4.9-15.9,6.2c-0.7,0.2-0.9,0-0.9-0.7c0-5-2.1-9.1-5.3-12.8c-1.9-2.2-4.1-4.1-6.5-5.9c-0.7-0.5-0.5-0.8,0.1-1.2
		c1.8-1.2,3.9-1.5,6-1.8c1-0.1,2-0.2,3-0.3c0.6-0.1,0.9,0,1.1,0.6c2.2,5.1,6.3,8.4,11.3,10.7c3.1,1.4,6.3,2.3,9.7,2.8
		C166.8,109,166.9,109.1,167.1,109.1z"/>
	<path fill="#FDCA00" stroke="#FDCA00" stroke-width="8" stroke-miterlimit="10" d="M168.3,83.6c3.4,0.4,6.6,0.8,9.7,1.4
		c4.3,0.9,8.5,0.6,12.8,0.2c1.9-0.1,3.8-0.3,5.8-0.5c-1.5,2.9-2.3,6-5.2,8.2c-0.2-1.4-0.4-2.6-0.6-3.8c-0.3-1.6-1-2.1-2.6-2
		c-2.4,0.2-4.7,1-6.9,2.1c-2,0.9-3.8,2.1-5.8,3c-2.5,1.1-2,0.7-2-1.4c0-0.8,0.1-1.6-0.1-2.4c-0.1-0.7-0.3-1-1.2-0.9
		c-0.9,0.1-2.1,0.6-2.8,0c-0.6-0.5-0.6-1.7-0.8-2.6C168.5,84.6,168.4,84.2,168.3,83.6z"/>
	<path fill="#FDCA00" stroke="#FDCA00" stroke-width="8" stroke-miterlimit="10" d="M195.5,80c0.1-1.8,1.3-3.8,2.8-5.7
		c1.5-1.9,3.4-3.2,5.5-4.5c0.6-0.4,1.2-0.5,1.9-0.4c1.4,0.3,1.8,0.7,1.5,2.1c-1.1,5-3.8,8.7-8.8,10.5c-0.3,0.1-0.7,0.2-1.1,0.2
		C195.8,82.6,195.5,82.4,195.5,80z"/>
	<path fill="#FDCA00" stroke="#FDCA00" stroke-width="8" stroke-miterlimit="10" d="M166,99c-0.4,0.8-0.6,1.4-0.8,2
		c-0.2,0.7-0.2,1.2,0.8,1.5c1.7,0.5,3.3,0.2,5-0.2c0.4-0.1,0.8-0.2,1.2-0.3c-0.4,1.6-1.9,2.8-3.8,3.1c-2.7,0.4-5.2-0.1-7.6-1.3
		c-2.6-1.2-5.2-2.6-7.3-4.6c-1.4-1.3-2.7-2.8-3.6-4.6C154.5,98.5,159.6,100.5,166,99z"/>
	<path fill="#FDCA00" stroke="#FDCA00" stroke-width="8" stroke-miterlimit="10" d="M149.8,94.5c0,0.1-0.1,0.1-0.1,0.2
		c-0.1,0-0.2-0.1-0.2-0.1c0,0,0.1-0.1,0.1-0.1C149.6,94.5,149.7,94.5,149.8,94.5z"/>
	<path fill="#FDCA00" stroke="#FDCA00" stroke-width="8" stroke-miterlimit="10" d="M178.9,53.5c-1.1,2.5-3.2,3.6-5.7,4.1
		c-3.3,0.7-6.7,0.3-10-0.2c-5.8-0.8-11.6-1.6-17.3-2.7c-0.6-0.1-1.1-0.2-1.6-0.4c-1.3-0.3-1.4-0.5-0.9-1.7c0.8-1.9,2.3-2.9,4.3-3.3
		c3.8-0.9,7.5-0.5,11.2,0.4c2,0.5,4,1.2,5.9,2c3,1.3,6.2,1.9,9.5,1.9C175.8,53.5,177.3,53.5,178.9,53.5z"/>
	<path fill="#FDCA00" stroke="#FDCA00" stroke-width="8" stroke-miterlimit="10" d="M135.3,26c0,0.1,0.1,0.2,0.1,0.2
		c-0.1,0.1-0.2,0-0.2-0.1C135.2,26.1,135.3,26,135.3,26z"/>
</g>
<g>
	<g>
		<path fill="#FFFFFF" d="M270.6,108.9c-1.2,1-2.8,1.8-4.9,2.2c-2,0.5-4,0.7-6,0.7c-2.5,0-4.9-0.4-7-1.3c-2.2-0.9-4.1-2.3-5.7-4.3
			c-1.6-2-2.9-4.6-3.8-7.9c-0.9-3.3-1.4-7.3-1.4-12c0-4.9,0.5-9,1.6-12.3c1-3.3,2.4-5.9,4.1-7.8c1.7-1.9,3.6-3.3,5.8-4.1
			c2.2-0.8,4.4-1.2,6.6-1.2c2.3,0,4.3,0.2,6,0.6c1.7,0.4,3.1,0.8,4.2,1.3l-1.7,7.7c-0.9-0.5-1.9-0.8-3.1-1.1
			c-1.2-0.3-2.6-0.4-4.2-0.4c-3.2,0-5.7,1.4-7.4,4.2c-1.7,2.8-2.6,7.2-2.6,13.1c0,2.6,0.2,4.9,0.6,7c0.4,2.1,1,3.9,1.9,5.5
			c0.9,1.5,2,2.7,3.3,3.6c1.3,0.8,2.9,1.3,4.8,1.3c1.6,0,3-0.2,4.2-0.7c1.2-0.4,2.2-1,3.1-1.6L270.6,108.9z"/>
		<path fill="#FFFFFF" d="M271.4,93.4c0-6.2,1.2-10.8,3.6-13.8c2.4-3,5.8-4.5,10.1-4.5c4.7,0,8.1,1.5,10.4,4.6
			c2.3,3.1,3.4,7.7,3.4,13.8c0,6.2-1.2,10.9-3.6,13.9c-2.4,3-5.8,4.5-10.2,4.5C276,111.7,271.4,105.6,271.4,93.4z M280,93.4
			c0,3.5,0.4,6.2,1.2,8.1c0.8,1.9,2.1,2.9,4,2.9c1.8,0,3.1-0.8,3.9-2.5c0.9-1.7,1.3-4.5,1.3-8.5c0-3.6-0.4-6.3-1.2-8.2
			c-0.8-1.9-2.1-2.8-4-2.8c-1.6,0-2.9,0.8-3.8,2.5C280.4,86.6,280,89.4,280,93.4z"/>
		<path fill="#FFFFFF" d="M319.9,110.8V90.5c0-2.9-0.2-5-0.7-6.1c-0.5-1.1-1.4-1.7-2.7-1.7c-1.1,0-2,0.4-2.8,1.1
			c-0.7,0.7-1.3,1.6-1.6,2.6v24.4h-8.3V75.9h6.4l1,4.2h0.2c0.9-1.4,2-2.6,3.3-3.6c1.3-1,3.1-1.4,5.3-1.4c1.8,0,3.3,0.4,4.4,1.2
			c1.1,0.8,2,2.2,2.7,4.2c0.9-1.7,2-3,3.5-3.9c1.4-1,3.1-1.4,5.1-1.4c1.5,0,2.9,0.2,3.9,0.6c1.1,0.4,2,1.1,2.7,2.1
			c0.7,1,1.2,2.3,1.5,4c0.3,1.7,0.5,3.9,0.5,6.5v22.6H336V89.6c0-2.4-0.2-4.1-0.6-5.2c-0.4-1.1-1.4-1.7-2.8-1.7
			c-1.2,0-2.1,0.3-2.8,1c-0.7,0.7-1.2,1.6-1.6,2.8v24.4H319.9z"/>
		<path fill="#FFFFFF" d="M350,75.9h6.2l0.8,4h0.2c1.1-1.7,2.3-2.9,3.6-3.7c1.3-0.8,3-1.2,4.9-1.2c3.5,0,6.2,1.3,8,4
			c1.8,2.7,2.7,7.1,2.7,13.4s-1.1,11-3.4,14.3c-2.2,3.3-5.5,5-9.7,5c-1.1,0-2.1-0.1-2.9-0.3c-0.8-0.2-1.5-0.5-2.2-0.9v14.2H350V75.9
			z M358.3,103c0.5,0.5,1,0.8,1.6,1c0.6,0.2,1.3,0.3,2.3,0.3c1.9,0,3.3-0.9,4.3-2.8c1-1.8,1.5-5,1.5-9.4c0-3.3-0.4-5.8-1.1-7.4
			c-0.7-1.6-2-2.4-3.7-2.4c-2.3,0-3.9,1.4-4.7,4.1V103z"/>
		<path fill="#FFFFFF" d="M389.2,75.9v20.9c0,2.7,0.3,4.7,0.8,5.7c0.5,1.1,1.4,1.6,2.8,1.6c1.3,0,2.4-0.5,3.3-1.4
			c0.9-1,1.5-2.1,1.9-3.5V75.9h8.3v24.3c0,1.9,0.1,3.8,0.2,5.6c0.1,1.8,0.4,3.5,0.8,5H401l-1.5-4.7h-0.2c-0.9,1.6-2.1,3-3.6,4
			c-1.5,1.1-3.4,1.6-5.6,1.6c-1.4,0-2.7-0.2-3.8-0.6c-1.1-0.4-2.1-1.1-2.9-2.1c-0.8-1-1.4-2.3-1.8-4c-0.4-1.7-0.6-3.9-0.6-6.5V75.9
			H389.2z"/>
		<path fill="#FFFFFF" d="M409.6,75.9h3.8v-6.6l8.3-2.6v9.1h6.8v7.4h-6.8v15.2c0,2,0.2,3.4,0.6,4.3c0.4,0.8,1.1,1.3,2.1,1.3
			c0.7,0,1.3-0.1,1.9-0.2c0.6-0.1,1.2-0.3,1.8-0.6l1,6.6c-1,0.5-2.2,0.9-3.6,1.3c-1.3,0.3-2.8,0.5-4.3,0.5c-2.7,0-4.6-0.8-6-2.3
			c-1.3-1.5-2-4.1-2-7.7V83.3h-3.8V75.9z"/>
		<path fill="#FFFFFF" d="M432.5,66.1c0-1.4,0.4-2.5,1.3-3.5c0.9-0.9,2.1-1.4,3.8-1.4c1.6,0,2.9,0.4,3.9,1.3c1,0.9,1.5,2,1.5,3.5
			c0,1.4-0.5,2.6-1.5,3.4c-1,0.8-2.3,1.3-3.9,1.3c-1.6,0-2.9-0.4-3.8-1.3C432.9,68.6,432.5,67.5,432.5,66.1z M433.4,75.9h8.3v34.9
			h-8.3V75.9z"/>
		<path fill="#FFFFFF" d="M465.7,110.8V89.6c0-2.6-0.3-4.4-0.9-5.4c-0.6-1-1.6-1.5-3.1-1.5c-1.2,0-2.3,0.4-3.1,1.1
			c-0.9,0.7-1.5,1.7-1.9,2.8v24.2h-8.3V75.9h6.6l1,4h0.2c0.8-1.3,2-2.5,3.4-3.5c1.4-1,3.3-1.4,5.7-1.4c1.4,0,2.6,0.2,3.7,0.6
			c1.1,0.4,2,1.1,2.8,2.1c0.7,1,1.3,2.2,1.7,3.8c0.4,1.6,0.6,3.6,0.6,6v23.2H465.7z"/>
		<path fill="#FFFFFF" d="M504.7,110.8c0,5.1-1.2,8.8-3.5,11.2c-2.3,2.4-5.6,3.6-9.7,3.6c-2.9,0-5.1-0.2-6.8-0.7
			c-1.6-0.4-2.9-0.9-3.8-1.4l1.7-7.1c1,0.4,2.1,0.8,3.3,1.2c1.2,0.4,2.6,0.6,4.2,0.6c2.4,0,4-0.6,4.9-1.9c0.9-1.3,1.4-3.2,1.4-5.8
			v-1.9h-0.2c-0.7,0.9-1.5,1.6-2.6,2.1c-1.1,0.5-2.5,0.7-4.2,0.7c-3.7,0-6.4-1.4-8.3-4.2c-1.8-2.8-2.8-7.2-2.8-13.2
			c0-6.5,1.3-11.2,3.8-14.3c2.5-3.1,6.2-4.6,10.9-4.6c2.5,0,4.8,0.2,6.8,0.6c2,0.4,3.6,0.9,4.8,1.4V110.8z M491.8,104.3
			c1.3,0,2.2-0.3,3-0.9c0.7-0.6,1.3-1.5,1.6-2.6V83.3c-0.5-0.2-1.1-0.4-1.7-0.6c-0.6-0.1-1.4-0.2-2.2-0.2c-1.7,0-3.1,0.8-4,2.5
			c-1,1.7-1.4,4.6-1.4,8.7C487.1,100.8,488.6,104.3,491.8,104.3z"/>
		<path fill="#FFFFFF" d="M552.3,70.1h-11.5v40.8H532V70.1h-11.6V62h31.9V70.1z"/>
		<path fill="#FFFFFF" d="M572.2,108.3c-1.2,1-2.7,1.9-4.7,2.5c-2,0.7-4.1,1-6.3,1c-2.4,0-4.5-0.4-6.2-1.3c-1.7-0.8-3.2-2-4.3-3.6
			c-1.1-1.6-1.9-3.5-2.5-5.8c-0.5-2.3-0.8-4.8-0.8-7.7c0-6.3,1.2-10.9,3.7-13.9c2.5-3,5.9-4.5,10.4-4.5c1.5,0,2.9,0.2,4.3,0.7
			c1.4,0.4,2.6,1.2,3.7,2.2c1.1,1,2,2.4,2.7,4.2c0.7,1.7,1,3.9,1,6.6c0,1-0.1,2.1-0.2,3.3c-0.1,1.2-0.3,2.4-0.5,3.8h-17
			c0.1,2.9,0.7,5.1,1.8,6.6c1.1,1.5,2.9,2.3,5.4,2.3c1.5,0,2.9-0.2,4.1-0.7c1.2-0.5,2.2-1,2.8-1.5L572.2,108.3z M561.3,82.1
			c-1.8,0-3.1,0.7-4,2.1c-0.9,1.4-1.4,3.4-1.5,6h9.6c0.1-2.7-0.1-4.7-0.8-6C563.8,82.8,562.8,82.1,561.3,82.1z"/>
		<path fill="#FFFFFF" d="M578.5,78c1.4-0.8,3.1-1.5,5.2-2c2.1-0.5,4.5-0.8,7.1-0.8c4,0,6.7,1,8.3,3.1c1.6,2,2.3,5,2.3,8.7
			c0,2.2-0.1,4.3-0.2,6.5c-0.1,2.1-0.2,4.2-0.2,6.2c0,2,0,4,0.1,5.9c0.1,1.9,0.4,3.7,0.9,5.3h-6.8l-1.3-4.3h-0.3
			c-0.7,1.4-1.8,2.5-3.1,3.4c-1.4,0.9-3,1.3-5.1,1.3c-2.7,0-4.9-0.9-6.5-2.8c-1.6-1.8-2.4-4.3-2.4-7.4c0-4.2,1.5-7.2,4.5-8.9
			c3-1.8,7-2.5,12.1-2.2c0.2-2.7,0.1-4.7-0.5-5.9c-0.6-1.2-1.8-1.8-3.7-1.8c-1.4,0-2.8,0.2-4.3,0.5c-1.5,0.3-2.8,0.8-4,1.4L578.5,78
			z M588.5,104.2c1.3,0,2.3-0.3,3.1-0.9c0.8-0.6,1.4-1.3,1.7-2.1v-5.8c-1.1-0.1-2.1-0.2-3.1-0.1c-1,0.1-1.8,0.3-2.6,0.6
			c-0.7,0.3-1.3,0.8-1.8,1.4c-0.4,0.6-0.7,1.4-0.7,2.4c0,1.4,0.3,2.5,0.9,3.3C586.7,103.8,587.5,104.2,588.5,104.2z"/>
		<path fill="#FFFFFF" d="M623.4,110.8V90.5c0-2.9-0.2-5-0.7-6.1c-0.5-1.1-1.4-1.7-2.7-1.7c-1.1,0-2,0.4-2.8,1.1
			c-0.7,0.7-1.3,1.6-1.6,2.6v24.4h-8.3V75.9h6.4l1,4.2h0.2c0.9-1.4,2-2.6,3.3-3.6c1.3-1,3.1-1.4,5.3-1.4c1.8,0,3.3,0.4,4.4,1.2
			c1.1,0.8,2,2.2,2.7,4.2c0.9-1.7,2-3,3.5-3.9c1.4-1,3.1-1.4,5.1-1.4c1.5,0,2.8,0.2,3.9,0.6c1.1,0.4,2,1.1,2.7,2.1
			c0.7,1,1.2,2.3,1.5,4c0.3,1.7,0.5,3.9,0.5,6.5v22.6h-8.3V89.6c0-2.4-0.2-4.1-0.6-5.2c-0.4-1.1-1.4-1.7-2.8-1.7
			c-1.2,0-2.1,0.3-2.8,1c-0.7,0.7-1.2,1.6-1.6,2.8v24.4H623.4z"/>
	</g>
	<g>
		<path fill="#FFFFFF" d="M253.9,27.1l-3.3-8.7h-0.4l1.1,8.6v24.6h-8.4V1.5h6.9l14.3,25l3.1,8.6h0.4l-1.1-8.4V1.8h8.4v50.1H268
			L253.9,27.1z"/>
		<path fill="#FFFFFF" d="M309.1,48.9c-1.2,1-2.8,1.9-4.8,2.6c-2,0.7-4.2,1-6.4,1c-2.5,0-4.6-0.4-6.4-1.3c-1.8-0.9-3.2-2.1-4.4-3.7
			c-1.1-1.6-2-3.6-2.5-5.9c-0.5-2.3-0.8-4.9-0.8-7.8c0-6.4,1.3-11.1,3.8-14.2c2.5-3.1,6-4.6,10.5-4.6c1.5,0,3,0.2,4.4,0.7
			c1.4,0.5,2.7,1.2,3.8,2.3c1.1,1.1,2,2.5,2.7,4.3c0.7,1.8,1,4,1,6.7c0,1-0.1,2.2-0.2,3.3c-0.1,1.2-0.3,2.5-0.5,3.8h-17.3
			c0.1,2.9,0.7,5.2,1.8,6.7c1.1,1.6,3,2.3,5.5,2.3c1.5,0,2.9-0.2,4.2-0.7c1.3-0.5,2.2-1,2.9-1.5L309.1,48.9z M298,22.3
			c-1.8,0-3.1,0.7-4,2.2c-0.9,1.4-1.4,3.5-1.6,6.1h9.8c0.1-2.7-0.1-4.7-0.9-6.1C300.7,23,299.5,22.3,298,22.3z"/>
		<path fill="#FFFFFF" d="M327.6,16v21.2c0,2.8,0.3,4.7,0.8,5.8c0.5,1.1,1.5,1.6,2.8,1.6c1.3,0,2.4-0.5,3.3-1.5
			c0.9-1,1.5-2.1,1.9-3.5V16h8.4v24.7c0,1.9,0.1,3.8,0.2,5.7c0.1,1.9,0.4,3.6,0.8,5.1h-6.4l-1.5-4.8h-0.2c-0.9,1.7-2.1,3-3.7,4.1
			c-1.5,1.1-3.4,1.6-5.7,1.6c-1.5,0-2.8-0.2-3.9-0.6s-2.1-1.1-2.9-2.1c-0.8-1-1.4-2.4-1.8-4.1c-0.4-1.7-0.6-3.9-0.6-6.6V16H327.6z"
			/>
		<path fill="#FFFFFF" d="M380.5,65.7h-8.5V49h-0.3c-0.7,1-1.5,1.9-2.6,2.5c-1.1,0.6-2.5,1-4.3,1c-3.5,0-6.2-1.5-8.2-4.5
			c-1.9-3-2.9-7.5-2.9-13.6c0-6.3,1.3-11.1,4-14.4c2.7-3.2,6.5-4.9,11.5-4.9c2.1,0,4.2,0.2,6.3,0.6c2.1,0.4,3.7,0.9,4.9,1.4V65.7z
			 M372.1,23.6c-1-0.6-2.3-0.9-4-0.9c-1.8,0-3.2,0.9-4.2,2.7c-0.9,1.8-1.4,4.7-1.4,8.7c0,7.2,1.6,10.9,4.8,10.9c1.3,0,2.3-0.3,3-1
			c0.7-0.6,1.3-1.6,1.7-2.7V23.6z"/>
		<path fill="#FFFFFF" d="M398.7,16v21.2c0,2.8,0.3,4.7,0.8,5.8c0.5,1.1,1.5,1.6,2.8,1.6c1.3,0,2.4-0.5,3.3-1.5
			c0.9-1,1.5-2.1,1.9-3.5V16h8.4v24.7c0,1.9,0.1,3.8,0.2,5.7c0.1,1.9,0.4,3.6,0.8,5.1h-6.4l-1.5-4.8h-0.2c-0.9,1.7-2.1,3-3.7,4.1
			c-1.5,1.1-3.4,1.6-5.7,1.6c-1.5,0-2.8-0.2-3.9-0.6c-1.1-0.4-2.1-1.1-2.9-2.1c-0.8-1-1.4-2.4-1.8-4.1c-0.4-1.7-0.6-3.9-0.6-6.6V16
			H398.7z"/>
		<path fill="#FFFFFF" d="M426.3,18.2c1.4-0.9,3.2-1.5,5.3-2.1c2.1-0.5,4.5-0.8,7.2-0.8c4,0,6.8,1,8.4,3.1c1.6,2.1,2.4,5,2.4,8.9
			c0,2.2-0.1,4.4-0.2,6.6c-0.1,2.2-0.2,4.3-0.2,6.3c0,2.1,0,4,0.1,6c0.1,1.9,0.4,3.7,1,5.4h-6.9l-1.3-4.3h-0.3
			c-0.8,1.4-1.8,2.5-3.2,3.4c-1.4,0.9-3.1,1.3-5.2,1.3c-2.8,0-5-0.9-6.6-2.8c-1.6-1.9-2.4-4.4-2.4-7.5c0-4.3,1.5-7.3,4.5-9.1
			c3-1.8,7.1-2.6,12.3-2.3c0.2-2.7,0.1-4.7-0.5-6c-0.6-1.2-1.9-1.8-3.8-1.8c-1.4,0-2.9,0.2-4.4,0.5c-1.5,0.3-2.9,0.8-4,1.4
			L426.3,18.2z M436.4,44.8c1.3,0,2.3-0.3,3.1-1c0.8-0.6,1.4-1.3,1.8-2.1v-5.9c-1.1-0.1-2.1-0.2-3.1-0.1c-1,0.1-1.9,0.3-2.6,0.6
			c-0.8,0.3-1.4,0.8-1.8,1.5c-0.5,0.6-0.7,1.5-0.7,2.4c0,1.5,0.3,2.6,0.9,3.3C434.6,44.4,435.4,44.8,436.4,44.8z"/>
		<path fill="#FFFFFF" d="M490.4,31l1,8.5h0.3l1.1-8.6l7.2-29.1h9.4l-15.1,50.1h-6.8L472.5,1.8h10.6L490.4,31z"/>
		<path fill="#FFFFFF" d="M512.6,18.2c1.4-0.9,3.2-1.5,5.3-2.1c2.1-0.5,4.5-0.8,7.2-0.8c4,0,6.8,1,8.4,3.1c1.6,2.1,2.4,5,2.4,8.9
			c0,2.2-0.1,4.4-0.2,6.6c-0.1,2.2-0.2,4.3-0.2,6.3c0,2.1,0,4,0.1,6c0.1,1.9,0.4,3.7,1,5.4h-6.9l-1.3-4.3h-0.3
			c-0.8,1.4-1.8,2.5-3.2,3.4c-1.4,0.9-3.1,1.3-5.2,1.3c-2.8,0-5-0.9-6.6-2.8c-1.6-1.9-2.4-4.4-2.4-7.5c0-4.3,1.5-7.3,4.5-9.1
			c3-1.8,7.1-2.6,12.3-2.3c0.2-2.7,0.1-4.7-0.5-6c-0.6-1.2-1.9-1.8-3.8-1.8c-1.4,0-2.9,0.2-4.4,0.5c-1.5,0.3-2.9,0.8-4,1.4
			L512.6,18.2z M522.8,44.8c1.3,0,2.3-0.3,3.1-1c0.8-0.6,1.4-1.3,1.8-2.1v-5.9c-1.1-0.1-2.1-0.2-3.1-0.1c-1,0.1-1.9,0.3-2.6,0.6
			c-0.8,0.3-1.4,0.8-1.8,1.5c-0.5,0.6-0.7,1.5-0.7,2.4c0,1.5,0.3,2.6,0.9,3.3C520.9,44.4,521.7,44.8,522.8,44.8z"/>
		<path fill="#FFFFFF" d="M554.4,40c0,1.7,0.2,2.8,0.5,3.6c0.3,0.7,0.9,1.1,1.6,1.1c0.4,0,0.9,0,1.3-0.1c0.4-0.1,1-0.3,1.5-0.5
			l0.8,6.8c-0.6,0.4-1.5,0.7-2.9,1.1c-1.4,0.3-2.8,0.5-4.2,0.5c-2.4,0-4.1-0.6-5.3-1.8c-1.2-1.2-1.8-3.2-1.8-6V1.8h8.4V40z"/>
		<path fill="#FFFFFF" d="M575.6,40c0,1.7,0.2,2.8,0.5,3.6c0.3,0.7,0.9,1.1,1.6,1.1c0.4,0,0.9,0,1.3-0.1c0.4-0.1,1-0.3,1.5-0.5
			l0.8,6.8c-0.6,0.4-1.5,0.7-2.9,1.1c-1.4,0.3-2.8,0.5-4.2,0.5c-2.4,0-4.1-0.6-5.3-1.8c-1.2-1.2-1.8-3.2-1.8-6V1.8h8.4V40z"/>
		<path fill="#FFFFFF" d="M612.3,48.9c-1.2,1-2.8,1.9-4.8,2.6c-2,0.7-4.2,1-6.4,1c-2.5,0-4.6-0.4-6.4-1.3c-1.8-0.9-3.2-2.1-4.4-3.7
			c-1.1-1.6-2-3.6-2.5-5.9c-0.5-2.3-0.8-4.9-0.8-7.8c0-6.4,1.3-11.1,3.8-14.2c2.5-3.1,6-4.6,10.5-4.6c1.5,0,3,0.2,4.4,0.7
			c1.4,0.5,2.7,1.2,3.8,2.3c1.1,1.1,2,2.5,2.7,4.3c0.7,1.8,1,4,1,6.7c0,1-0.1,2.2-0.2,3.3c-0.1,1.2-0.3,2.5-0.5,3.8h-17.3
			c0.1,2.9,0.7,5.2,1.8,6.7c1.1,1.6,3,2.3,5.5,2.3c1.5,0,2.9-0.2,4.2-0.7c1.3-0.5,2.2-1,2.9-1.5L612.3,48.9z M601.2,22.3
			c-1.8,0-3.1,0.7-4,2.2c-0.9,1.4-1.4,3.5-1.6,6.1h9.8c0.1-2.7-0.1-4.7-0.9-6.1C603.8,23,602.7,22.3,601.2,22.3z"/>
		<path fill="#FFFFFF" d="M633.3,36l0.9,5.5h0.4l0.6-5.6l4.1-19.9h8.7l-8.9,32c-0.8,2.8-1.6,5.3-2.3,7.5c-0.7,2.2-1.5,4.1-2.3,5.7
			c-0.8,1.6-1.7,2.8-2.7,3.6c-1,0.8-2.2,1.2-3.7,1.2c-1,0-2-0.1-2.9-0.2c-0.9-0.2-1.7-0.4-2.4-0.8l1.4-7.2c0.6,0.2,1.2,0.3,1.9,0.3
			c0.6,0,1.2-0.3,1.8-0.7c0.5-0.5,1-1.2,1.5-2.1c0.4-1,0.8-2.2,1.1-3.8L618.2,16h10.2L633.3,36z"/>
	</g>
</g>
<g>
	<path fill="#092A4D" d="M63.7,79.9c5.8-9.8,11.2-19.4,19-27.7c-2-1-4-1.5-6.1-2c-15.4-3.8-31-6.8-46.7-9.4
		c-5.9-1-11.8-1.6-17.7-2.6c-1.1-0.2-2.2-0.3-3.2-0.8c1.8-1.5,3.8-2.5,5.8-3.5c6.6-3.5,13.3-7,20.2-9.7c8.9-3.5,18-6.4,27.3-8.4
		c10.6-2.3,21.3-3.6,32.1-4.3c0.7,0,0.8-0.3,0.7-0.9C95,9,94.9,7.4,94.8,5.8c-0.1-0.5,0.1-0.7,0.6-0.7c7.2-0.4,14.3,0.1,21.1,2.6
		c3.1,1.1,6,2.5,8.7,4.3c2.2,1.5,4.7,2.4,7.3,3.1c5,1.3,10.1,2.5,15.1,4.1c3.2,1,6.5,2,9.8,2.9c0.8,0.2,1.2,0.1,1.4-0.8
		c0.3-1.4,0.7-2.7,1.1-4.1c0.1-0.3,0.1-0.6,0.6-0.5c5.5,1.6,10.9,3.3,15.5,6.8c2.6,1.9,4.5,4.4,5.8,7.2c1.3,2.5,3.2,4.2,5.6,5.5
		c7.1,3.9,12.6,9.3,16.3,16.4c0.5,0.9,1.1,1.5,2.1,2c1.8,0.8,3.3,2,4.6,3.5c1.8,2,3.7,3.9,5.3,6.1c0.4,0.5,0.5,0.9,0,1.5
		c-0.7,0.9-1.5,1.8-2.4,2.6c-0.3,0.3-0.5,0.5-0.4,0.9c0.7,4.8-1.4,8.6-4.4,12.1c-1.3,1.5-2.6,2.9-4.3,3.9c-1.4,0.9-2.4,2.1-3.4,3.4
		c-3,3.8-6.7,6.8-11.5,8.4c-0.1,0-0.2,0-0.4,0.1c-0.1-0.7-0.1-1.5-0.3-2.2c-0.5-1.4-1.5-2-2.9-1.6c-2.2,0.6-3.9,2-5.7,3.3
		c-2.3,1.6-3.8,3.8-5.4,6c-0.9,1.2-1.7,2.4-2.6,3.6c-0.4,0.5-0.2,0.7,0.3,0.9c0.9,0.3,1.9,0.5,2.5,1.3c-4.7,5.4-23.3,12.7-33.7,13.3
		c1.9-3.5,0.7-6.8-0.9-9.9c-2.2-4.3-5.3-8-9.2-11.1c-1.1-0.9-1.2-0.9-2.2,0.1c-1.6,1.4-3.1,2.9-4.7,4.3c0-0.9,0.1-2,0.1-3.1
		c0.2-3.3,0.4-6.6,0.6-9.9c0-0.7-0.1-1-0.9-0.7c-3.6,1.3-6.9,3.3-10.3,5.1c-6.3,3.4-11.8,7.9-17.4,12.2c-0.8,0.6-1.6,1.3-2.4,1.9
		c-0.4,0.3-0.9,0.6-1.5,0.6c0.3-2.4,0.6-4.7,1-7.1c1.2-7,3.1-13.9,5.7-20.5c0.4-1,1.2-1.9,1.5-2.9c0.2-0.7,0.2-1-0.6-1.3
		c-1.6-0.5-3.3-0.6-4.9-0.7c-6.4-0.3-12.8,0.1-19.2,0.5c-3.7,0.2-7.5,0.5-11.2,0.8C64.6,79.9,64.3,79.9,63.7,79.9z M135.2,26.1
		c-0.3-0.2-0.6-0.4-0.8-0.7c-6-5.4-12.4-10.1-20.1-12.9c-4.1-1.5-8.3-2.5-12.7-2.5c-0.6,0-0.9,0.1-0.7,0.8c0.2,0.6,0.2,1.3,0.4,1.9
		c1.7,5.9,4.5,11.3,8.6,16c1.3,1.5,2.7,2.9,4.4,4.3c-0.3-1.4-0.8-2.6-1.3-3.7c-1.1-2.6-2.1-5.1-2.4-7.9c-0.1-0.7,0.1-0.8,0.8-0.6
		c1.6,0.5,3,1.2,4.4,2.1c4.6,2.9,8.5,6.5,11.8,10.7c1.6,2,3,4.2,3.7,6.7c0.2,0.7,0.2,1.1-0.8,1.1c-1.7-0.1-3.5-0.1-5.2-0.5
		c-10.2-1.9-18.7-7-26.2-13.8c-3-2.7-5.3-6-7.7-9.2c-0.4-0.5-0.8-0.8-1.5-0.7c-1.9,0.2-3.7,0.3-5.6,0.4c-10.3,0.9-20.3,2.9-30.1,5.8
		c-7.1,2.1-14,4.6-20.7,7.4c-2.1,0.9-4.2,1.9-6.3,2.8c-0.3,0.1-0.7,0.3-0.6,0.8c0.1,0.4,0.5,0.4,0.9,0.5c4.2,0.6,8.3,1.3,12.5,2.1
		c9.2,1.7,18.3,3.4,27.4,5.6c8.4,2,16.9,3.9,25.1,6.5c1.1,0.4,1.2,0.4,0.5,1.4c-1.4,1.9-3.2,3.4-5,4.9c-5.7,5.1-10.2,11-14.3,17.3
		c-0.3,0.4-0.6,0.8-0.6,1.4c0.3,0,0.6,0,0.8,0c4.3-0.2,8.6-0.5,12.9-0.7c5-0.2,10,0,15,0.6c2.2,0.2,4.5,0.5,6.7,1.1
		c1.1,0.3,1.1,0.3,0.6,1.3c-3.3,6.2-6,12.8-7.6,19.6c-0.1,0.6-0.6,1.5-0.1,1.9c0.4,0.3,1.2-0.4,1.8-0.8c3.9-2.6,7.8-5,11.9-7.3
		c4.9-2.7,9.9-5.1,15.5-6.2c1.4-0.3,2.9-0.5,4.5-0.4c-2.9,1.4-4.6,4.7-4.1,7.7c1.7-1,3.1-2.5,4.6-3.7c3.6-2.8,7.4-5.3,11.6-7.1
		c1.9-0.8,3.8-1.6,5.9-1.3c1.4,0.2,2.8,0.2,4.2,0.4c3.7,0.5,7.4,0.4,11,1.8c4.6,1.7,9.5,2.1,14.4,1.5c5.8-0.8,9.9-3.8,12.4-9
		c1-2.2,0.7-4-1.1-5.6c-2.7-2.3-5.6-4.1-9.1-5c-1.5-0.4-3.1-0.8-4.6-1.7c0.3-0.1,0.6-0.2,0.8-0.2c0.3,0,0.6-0.1,0.9-0.1
		c2.8,0,5.4,0.9,8,1.7c3.7,1.2,7.3,2.6,11.1,3.3c2.3,0.4,4.7,0.5,7-0.3c1.2-0.4,1.3-0.7,0.7-1.8c-0.5-1-1.3-1.8-2.2-2.5
		c-3.1-2.4-6.6-3.9-10.2-5.3c-1.5-0.6-3.1-1.1-4.7-1.7c1.5-1,2.8-1.8,4.2-2.7c0.5-0.3,0.6-0.6,0.2-1.1c-1.5-1.8-3.1-3.5-5-4.9
		c-3.8-2.8-7.4-5.7-11.5-8.1c-0.9-0.5-1.5-1.2-1.7-2.2c-0.6-2.7-2-5-4.4-6.6c-0.4-0.3-0.8-0.6-1.2-0.9c-2.2-1.9-4.7-3.2-7.5-4
		c-0.5-0.1-0.7,0-0.8,0.5c-0.4,1.3-0.3,2.7-0.2,4.1c0,0.4,0.4,0.6,0.7,0.7c0.6,0.3,1.2,0.8,1.7,1.2c0.2,0.2,0.2,0.3,0.1,0.5
		c-0.1,0.2-0.3,0.1-0.4,0.1c-0.2-0.1-0.5-0.1-0.7-0.2c-8.2-3.3-16.6-6.1-25.1-8.3c-1.7-0.4-3.4-0.8-5-1.1c-1.2-0.2-1.4,0-0.9,1
		c0.5,1.2,1,2.3,1.4,3.5C135.3,26,135.2,26.1,135.2,26.1z M167.1,109.1c-0.2-0.1-0.3-0.2-0.5-0.2c-3.4-0.5-6.6-1.4-9.7-2.8
		c-5.1-2.3-9.1-5.6-11.3-10.7c-0.3-0.6-0.6-0.7-1.1-0.6c-1,0.1-2,0.2-3,0.3c-2.1,0.3-4.2,0.7-6,1.8c-0.6,0.4-0.8,0.6-0.1,1.2
		c2.3,1.8,4.5,3.7,6.5,5.9c3.2,3.7,5.3,7.9,5.3,12.8c0,0.7,0.2,0.9,0.9,0.7c5.6-1.3,10.9-3.4,15.9-6.2
		C165.1,110.8,166.3,110.2,167.1,109.1z M168.3,83.6c0.1,0.6,0.3,1,0.4,1.4c0.2,0.9,0.2,2,0.8,2.6c0.6,0.6,1.8,0.1,2.8,0
		c0.8-0.1,1.1,0.2,1.2,0.9c0.1,0.8,0.1,1.6,0.1,2.4c-0.1,2.1-0.5,2.4,2,1.4c2-0.8,3.8-2,5.8-3c2.2-1,4.5-1.8,6.9-2.1
		c1.6-0.2,2.4,0.4,2.6,2c0.2,1.2,0.4,2.5,0.6,3.8c2.9-2.2,3.7-5.3,5.2-8.2c-2,0.2-3.9,0.3-5.8,0.5c-4.3,0.3-8.5,0.7-12.8-0.2
		C174.8,84.4,171.6,84,168.3,83.6z M195.5,80c0,2.4,0.3,2.6,1.9,2.3c0.4-0.1,0.7-0.1,1.1-0.2c5-1.8,7.7-5.5,8.8-10.5
		c0.3-1.4-0.1-1.8-1.5-2.1c-0.7-0.1-1.3,0-1.9,0.4c-2,1.2-4,2.6-5.5,4.5C196.8,76.2,195.6,78.2,195.5,80z M166,99
		c-6.3,1.5-11.5-0.5-16.2-4.3c0.9,1.8,2.2,3.3,3.6,4.6c2.1,2,4.7,3.4,7.3,4.6c2.4,1.1,4.9,1.7,7.6,1.3c1.9-0.3,3.4-1.5,3.8-3.1
		c-0.4,0.1-0.8,0.2-1.2,0.3c-1.7,0.3-3.3,0.6-5,0.2c-1-0.3-1-0.8-0.8-1.5C165.3,100.4,165.6,99.8,166,99z M149.8,94.5
		c-0.1,0-0.2-0.1-0.2-0.1c0,0-0.1,0.1-0.1,0.1c0.1,0,0.2,0.1,0.2,0.1C149.7,94.6,149.8,94.6,149.8,94.5z"/>
	<path fill="#FDCA00" d="M135.3,26c-0.5-1.2-1-2.3-1.4-3.5c-0.4-1-0.3-1.2,0.9-1c1.7,0.3,3.4,0.7,5,1.1c8.6,2.2,16.9,5,25.1,8.3
		c0.2,0.1,0.4,0.1,0.7,0.2c0.2,0,0.3,0.1,0.4-0.1c0.1-0.2,0.1-0.4-0.1-0.5c-0.5-0.5-1-0.9-1.7-1.2c-0.3-0.2-0.7-0.3-0.7-0.7
		c-0.1-1.4-0.2-2.7,0.2-4.1c0.1-0.5,0.3-0.6,0.8-0.5c2.8,0.8,5.3,2.1,7.5,4c0.4,0.3,0.7,0.7,1.2,0.9c2.5,1.6,3.8,3.9,4.4,6.6
		c0.2,1,0.8,1.7,1.7,2.2c4,2.4,7.7,5.3,11.5,8.1c1.9,1.4,3.5,3.1,5,4.9c0.4,0.5,0.4,0.7-0.2,1.1c-1.4,0.8-2.7,1.7-4.2,2.7
		c1.7,0.6,3.2,1.1,4.7,1.7c3.6,1.4,7.2,2.9,10.2,5.3c0.9,0.7,1.7,1.5,2.2,2.5c0.6,1.1,0.5,1.4-0.7,1.8c-2.3,0.8-4.6,0.7-7,0.3
		c-3.8-0.7-7.5-2.1-11.1-3.3c-2.6-0.9-5.2-1.8-8-1.7c-0.3,0-0.6,0-0.9,0.1c-0.2,0-0.4,0.1-0.8,0.2c1.5,0.9,3.1,1.3,4.6,1.7
		c3.5,0.9,6.4,2.8,9.1,5c1.8,1.5,2.1,3.4,1.1,5.6c-2.4,5.2-6.6,8.2-12.4,9c-4.9,0.7-9.9,0.3-14.4-1.5c-3.6-1.4-7.3-1.3-11-1.8
		c-1.4-0.2-2.8-0.2-4.2-0.4c-2.2-0.3-4.1,0.6-5.9,1.3c-4.3,1.7-8,4.2-11.6,7.1c-1.5,1.2-2.9,2.7-4.6,3.7c-0.5-3,1.2-6.3,4.1-7.7
		c-1.7-0.1-3.1,0.1-4.5,0.4c-5.6,1.1-10.6,3.5-15.5,6.2c-4.1,2.3-8,4.7-11.9,7.3c-0.6,0.4-1.4,1.1-1.8,0.8c-0.5-0.3,0-1.2,0.1-1.9
		c1.6-6.9,4.3-13.4,7.6-19.6c0.5-1,0.6-1-0.6-1.3c-2.2-0.6-4.4-0.9-6.7-1.1c-5-0.5-10-0.8-15-0.6c-4.3,0.2-8.6,0.5-12.9,0.7
		c-0.3,0-0.5,0-0.8,0c0-0.6,0.3-1,0.6-1.4c4.1-6.3,8.6-12.3,14.3-17.3c1.7-1.6,3.6-3,5-4.9c0.7-1,0.7-1-0.5-1.4
		c-8.3-2.6-16.7-4.5-25.1-6.5C58,40.4,48.8,38.7,39.6,37c-4.1-0.8-8.3-1.5-12.5-2.1c-0.4,0-0.8,0-0.9-0.5c-0.1-0.4,0.3-0.6,0.6-0.8
		c2.1-1,4.2-1.9,6.3-2.8C40,28,46.9,25.5,54,23.5c9.9-2.9,19.9-4.9,30.1-5.8c1.9-0.2,3.7-0.3,5.6-0.4c0.7-0.1,1.1,0.2,1.5,0.7
		c2.4,3.2,4.7,6.5,7.7,9.2c7.6,6.8,16,11.8,26.2,13.8c1.7,0.3,3.4,0.4,5.2,0.5c1,0,1-0.3,0.8-1.1c-0.7-2.5-2.1-4.6-3.7-6.7
		c-3.3-4.2-7.2-7.8-11.8-10.7c-1.4-0.9-2.8-1.6-4.4-2.1c-0.6-0.2-0.8-0.1-0.8,0.6c0.3,2.8,1.3,5.4,2.4,7.9c0.5,1.1,1,2.3,1.3,3.7
		c-1.7-1.4-3.1-2.8-4.4-4.3c-4.1-4.7-6.9-10.1-8.6-16c-0.2-0.6-0.2-1.3-0.4-1.9c-0.2-0.7,0.1-0.8,0.7-0.8c4.4,0,8.6,1,12.7,2.5
		c7.7,2.8,14.1,7.5,20.1,12.9c0.3,0.2,0.6,0.4,0.8,0.7c0,0.1,0.1,0.2,0.2,0.1C135.4,26.2,135.3,26.1,135.3,26z M178.9,53.5
		c-1.6,0-3.1,0-4.6,0c-3.3,0.1-6.4-0.6-9.5-1.9c-1.9-0.8-3.9-1.6-5.9-2c-3.7-0.9-7.5-1.3-11.2-0.4c-1.9,0.5-3.5,1.4-4.3,3.3
		c-0.5,1.2-0.4,1.4,0.9,1.7c0.5,0.1,1.1,0.3,1.6,0.4c5.7,1.1,11.5,1.9,17.3,2.7c3.3,0.5,6.7,0.9,10,0.2
		C175.7,57.1,177.7,56.1,178.9,53.5z"/>
	<path fill="#FDCA00" d="M167.1,109.1c-0.9,1-2,1.7-3.1,2.3c-5,2.8-10.3,4.9-15.9,6.2c-0.7,0.2-0.9,0-0.9-0.7c0-5-2.1-9.1-5.3-12.8
		c-1.9-2.2-4.1-4.1-6.5-5.9c-0.7-0.5-0.5-0.8,0.1-1.2c1.8-1.2,3.9-1.5,6-1.8c1-0.1,2-0.2,3-0.3c0.6-0.1,0.9,0,1.1,0.6
		c2.2,5.1,6.3,8.4,11.3,10.7c3.1,1.4,6.3,2.3,9.7,2.8C166.8,109,166.9,109.1,167.1,109.1z"/>
	<path fill="#FEFEFE" d="M168.3,83.6c3.4,0.4,6.6,0.8,9.7,1.4c4.3,0.9,8.5,0.6,12.8,0.2c1.9-0.1,3.8-0.3,5.8-0.5
		c-1.5,2.9-2.3,6-5.2,8.2c-0.2-1.4-0.4-2.6-0.6-3.8c-0.3-1.6-1-2.1-2.6-2c-2.4,0.2-4.7,1-6.9,2.1c-2,0.9-3.8,2.1-5.8,3
		c-2.5,1.1-2,0.7-2-1.4c0-0.8,0.1-1.6-0.1-2.4c-0.1-0.7-0.3-1-1.2-0.9c-0.9,0.1-2.1,0.6-2.8,0c-0.6-0.5-0.6-1.7-0.8-2.6
		C168.5,84.6,168.4,84.2,168.3,83.6z"/>
	<path fill="#FDCA00" d="M195.5,80c0.1-1.8,1.3-3.8,2.8-5.7c1.5-1.9,3.4-3.2,5.5-4.5c0.6-0.4,1.2-0.5,1.9-0.4
		c1.4,0.3,1.8,0.7,1.5,2.1c-1.1,5-3.8,8.7-8.8,10.5c-0.3,0.1-0.7,0.2-1.1,0.2C195.8,82.6,195.5,82.4,195.5,80z"/>
	<path fill="#FEFEFE" d="M166,99c-0.4,0.8-0.6,1.4-0.8,2c-0.2,0.7-0.2,1.2,0.8,1.5c1.7,0.5,3.3,0.2,5-0.2c0.4-0.1,0.8-0.2,1.2-0.3
		c-0.4,1.6-1.9,2.8-3.8,3.1c-2.7,0.4-5.2-0.1-7.6-1.3c-2.6-1.2-5.2-2.6-7.3-4.6c-1.4-1.3-2.7-2.8-3.6-4.6
		C154.5,98.5,159.6,100.5,166,99z"/>
	<path fill="#FEFEFE" d="M149.8,94.5c0,0.1-0.1,0.1-0.1,0.2c-0.1,0-0.2-0.1-0.2-0.1c0,0,0.1-0.1,0.1-0.1
		C149.6,94.5,149.7,94.5,149.8,94.5z"/>
	<path fill="#092A4D" d="M178.9,53.5c-1.1,2.5-3.2,3.6-5.7,4.1c-3.3,0.7-6.7,0.3-10-0.2c-5.8-0.8-11.6-1.6-17.3-2.7
		c-0.6-0.1-1.1-0.2-1.6-0.4c-1.3-0.3-1.4-0.5-0.9-1.7c0.8-1.9,2.3-2.9,4.3-3.3c3.8-0.9,7.5-0.5,11.2,0.4c2,0.5,4,1.2,5.9,2
		c3,1.3,6.2,1.9,9.5,1.9C175.8,53.5,177.3,53.5,178.9,53.5z"/>
	<path fill="#092A4D" d="M135.3,26c0,0.1,0.1,0.2,0.1,0.2c-0.1,0.1-0.2,0-0.2-0.1C135.2,26.1,135.3,26,135.3,26z"/>
</g>
</svg>
