<?xml version="1.0" encoding="utf-8"?>
<svg version="1.1" id="Layer_1" xmlns="http://www.w3.org/2000/svg" xmlns:xlink="http://www.w3.org/1999/xlink" width="1202px" height="127px">
<rdf:RDF xmlns:rdf="http://www.w3.org/1999/02/22-rdf-syntax-ns#" xmlns:schema="http://schema.org/">
	<rdf:Description rdf:about="Made by Anton Barchukov. YOU CANNOT USE OR DISTRUBUTE THIS IMAGE">
		<schema:license rdf:resource="https://creativecommons.org/licenses/by-nc-nd/4.0/"/>
	</rdf:Description>
</rdf:RDF>
<style type="text/css">
	.st0{fill:#FDCA00;stroke:#FDCA00;stroke-width:8;stroke-miterlimit:10;}
	.st1{fill:#092A4D;}
	.st2{fill:#FDCA00;}
	.st3{fill:#FEFEFE;}
	.st4{fill:#FFFFFF;}
</style>
<g>
	<g>
		<path class="st0" d="M63.7,79.9c5.8-9.8,11.2-19.4,19-27.7c-2-1-4-1.5-6.1-2c-15.4-3.8-31-6.8-46.7-9.4c-5.9-1-11.8-1.6-17.7-2.6
			C11.1,38,10,37.9,9,37.4c1.8-1.5,3.8-2.5,5.8-3.5c6.6-3.5,13.3-7,20.2-9.7c8.9-3.5,18-6.4,27.3-8.4c10.6-2.3,21.3-3.6,32.1-4.3
			c0.7,0,0.8-0.3,0.7-0.9C95,9,94.9,7.4,94.8,5.8c-0.1-0.5,0.1-0.7,0.6-0.7c7.2-0.4,14.3,0.1,21.1,2.6c3.1,1.1,6,2.5,8.7,4.3
			c2.2,1.5,4.7,2.4,7.3,3.1c5,1.3,10.1,2.5,15.1,4.1c3.2,1,6.5,2,9.8,2.9c0.8,0.2,1.2,0.1,1.4-0.8c0.3-1.4,0.7-2.7,1.1-4.1
			c0.1-0.3,0.1-0.6,0.6-0.5c5.5,1.6,10.9,3.3,15.5,6.8c2.6,1.9,4.5,4.4,5.8,7.2c1.3,2.5,3.2,4.2,5.6,5.5c7.1,3.9,12.6,9.3,16.3,16.4
			c0.5,0.9,1.1,1.5,2.1,2c1.8,0.8,3.3,2,4.6,3.5c1.8,2,3.7,3.9,5.3,6.1c0.4,0.5,0.5,0.9,0,1.5c-0.7,0.9-1.5,1.8-2.4,2.6
			c-0.3,0.3-0.5,0.5-0.4,0.9c0.7,4.8-1.4,8.6-4.4,12.1c-1.3,1.5-2.6,2.9-4.3,3.9c-1.4,0.9-2.4,2.1-3.4,3.4c-3,3.8-6.7,6.8-11.5,8.4
			c-0.1,0-0.2,0-0.4,0.1c-0.1-0.7-0.1-1.5-0.3-2.2c-0.5-1.4-1.5-2-2.9-1.6c-2.2,0.6-3.9,2-5.7,3.3c-2.3,1.6-3.8,3.8-5.4,6
			c-0.9,1.2-1.7,2.4-2.6,3.6c-0.4,0.5-0.2,0.7,0.3,0.9c0.9,0.3,1.9,0.5,2.5,1.3c-4.7,5.4-23.3,12.7-33.7,13.3
			c1.9-3.5,0.7-6.8-0.9-9.9c-2.2-4.3-5.3-8-9.2-11.1c-1.1-0.9-1.2-0.9-2.2,0.1c-1.6,1.4-3.1,2.9-4.7,4.3c0-0.9,0.1-2,0.1-3.1
			c0.2-3.3,0.4-6.6,0.6-9.9c0-0.7-0.1-1-0.9-0.7c-3.6,1.3-6.9,3.3-10.3,5.1c-6.3,3.4-11.8,7.9-17.4,12.2c-0.8,0.6-1.6,1.3-2.4,1.9
			c-0.4,0.3-0.9,0.6-1.5,0.6c0.3-2.4,0.6-4.7,1-7.1c1.2-7,3.1-13.9,5.7-20.5c0.4-1,1.2-1.9,1.5-2.9c0.2-0.7,0.2-1-0.6-1.3
			c-1.6-0.5-3.3-0.6-4.9-0.7c-6.4-0.3-12.8,0.1-19.2,0.5c-3.7,0.2-7.5,0.5-11.2,0.8C64.6,79.9,64.3,79.9,63.7,79.9z M135.2,26.1
			c-0.3-0.2-0.6-0.4-0.8-0.7c-6-5.4-12.4-10.1-20.1-12.9C110.2,11,106,10,101.6,10c-0.6,0-0.9,0.1-0.7,0.8c0.2,0.6,0.2,1.3,0.4,1.9
			c1.7,5.9,4.5,11.3,8.6,16c1.3,1.5,2.7,2.9,4.4,4.3c-0.3-1.4-0.8-2.6-1.3-3.7c-1.1-2.6-2.1-5.1-2.4-7.9c-0.1-0.7,0.1-0.8,0.8-0.6
			c1.6,0.5,3,1.2,4.4,2.1c4.6,2.9,8.5,6.5,11.8,10.7c1.6,2,3,4.2,3.7,6.7c0.2,0.7,0.2,1.1-0.8,1.1c-1.7-0.1-3.5-0.1-5.2-0.5
			c-10.2-1.9-18.7-7-26.2-13.8c-3-2.7-5.3-6-7.7-9.2c-0.4-0.5-0.8-0.8-1.5-0.7c-1.9,0.2-3.7,0.3-5.6,0.4C74,18.5,64,20.5,54.2,23.4
			c-7.1,2.1-14,4.6-20.7,7.4c-2.1,0.9-4.2,1.9-6.3,2.8c-0.3,0.1-0.7,0.3-0.6,0.8c0.1,0.4,0.5,0.4,0.9,0.5c4.2,0.6,8.3,1.3,12.5,2.1
			c9.2,1.7,18.3,3.4,27.4,5.6c8.4,2,16.9,3.9,25.1,6.5c1.1,0.4,1.2,0.4,0.5,1.4c-1.4,1.9-3.2,3.4-5,4.9c-5.7,5.1-10.2,11-14.3,17.3
			c-0.3,0.4-0.6,0.8-0.6,1.4c0.3,0,0.6,0,0.8,0c4.3-0.2,8.6-0.5,12.9-0.7c5-0.2,10,0,15,0.6c2.2,0.2,4.5,0.5,6.7,1.1
			c1.1,0.3,1.1,0.3,0.6,1.3c-3.3,6.2-6,12.8-7.6,19.6c-0.1,0.6-0.6,1.5-0.1,1.9c0.4,0.3,1.2-0.4,1.8-0.8c3.9-2.6,7.8-5,11.9-7.3
			c4.9-2.7,9.9-5.1,15.5-6.2c1.4-0.3,2.9-0.5,4.5-0.4c-2.9,1.4-4.6,4.7-4.1,7.7c1.7-1,3.1-2.5,4.6-3.7c3.6-2.8,7.4-5.3,11.6-7.1
			c1.9-0.8,3.8-1.6,5.9-1.3c1.4,0.2,2.8,0.2,4.2,0.4c3.7,0.5,7.4,0.4,11,1.8c4.6,1.7,9.5,2.1,14.4,1.5c5.8-0.8,9.9-3.8,12.4-9
			c1-2.2,0.7-4-1.1-5.6c-2.7-2.3-5.6-4.1-9.1-5c-1.5-0.4-3.1-0.8-4.6-1.7c0.3-0.1,0.6-0.2,0.8-0.2c0.3,0,0.6-0.1,0.9-0.1
			c2.8,0,5.4,0.9,8,1.7c3.7,1.2,7.3,2.6,11.1,3.3c2.3,0.4,4.7,0.5,7-0.3c1.2-0.4,1.3-0.7,0.7-1.8c-0.5-1-1.3-1.8-2.2-2.5
			c-3.1-2.4-6.6-3.9-10.2-5.3c-1.5-0.6-3.1-1.1-4.7-1.7c1.5-1,2.8-1.8,4.2-2.7c0.5-0.3,0.6-0.6,0.2-1.1c-1.5-1.8-3.1-3.5-5-4.9
			c-3.8-2.8-7.4-5.7-11.5-8.1c-0.9-0.5-1.5-1.2-1.7-2.2c-0.6-2.7-2-5-4.4-6.6c-0.4-0.3-0.8-0.6-1.2-0.9c-2.2-1.9-4.7-3.2-7.5-4
			c-0.5-0.1-0.7,0-0.8,0.5c-0.4,1.3-0.3,2.7-0.2,4.1c0,0.4,0.4,0.6,0.7,0.7c0.6,0.3,1.2,0.8,1.7,1.2c0.2,0.2,0.2,0.3,0.1,0.5
			c-0.1,0.2-0.3,0.1-0.4,0.1c-0.2-0.1-0.5-0.1-0.7-0.2c-8.2-3.3-16.6-6.1-25.1-8.3c-1.7-0.4-3.4-0.8-5-1.1c-1.2-0.2-1.4,0-0.9,1
			c0.5,1.2,1,2.3,1.4,3.5C135.3,26,135.2,26.1,135.2,26.1z M167.1,109.1c-0.2-0.1-0.3-0.2-0.5-0.2c-3.4-0.5-6.6-1.4-9.7-2.8
			c-5.1-2.3-9.1-5.6-11.3-10.7c-0.3-0.6-0.6-0.7-1.1-0.6c-1,0.1-2,0.2-3,0.3c-2.1,0.3-4.2,0.7-6,1.8c-0.6,0.4-0.8,0.6-0.1,1.2
			c2.3,1.8,4.5,3.7,6.5,5.9c3.2,3.7,5.3,7.9,5.3,12.8c0,0.7,0.2,0.9,0.9,0.7c5.6-1.3,10.9-3.4,15.9-6.2
			C165.1,110.8,166.3,110.2,167.1,109.1z M168.3,83.6c0.1,0.6,0.3,1,0.4,1.4c0.2,0.9,0.2,2,0.8,2.6s1.8,0.1,2.8,0
			c0.8-0.1,1.1,0.2,1.2,0.9c0.1,0.8,0.1,1.6,0.1,2.4c-0.1,2.1-0.5,2.4,2,1.4c2-0.8,3.8-2,5.8-3c2.2-1,4.5-1.8,6.9-2.1
			c1.6-0.2,2.4,0.4,2.6,2c0.2,1.2,0.4,2.5,0.6,3.8c2.9-2.2,3.7-5.3,5.2-8.2c-2,0.2-3.9,0.3-5.8,0.5c-4.3,0.3-8.5,0.7-12.8-0.2
			C174.8,84.4,171.6,84,168.3,83.6z M195.5,80c0,2.4,0.3,2.6,1.9,2.3c0.4-0.1,0.7-0.1,1.1-0.2c5-1.8,7.7-5.5,8.8-10.5
			c0.3-1.4-0.1-1.8-1.5-2.1c-0.7-0.1-1.3,0-1.9,0.4c-2,1.2-4,2.6-5.5,4.5C196.8,76.2,195.6,78.2,195.5,80z M166,99
			c-6.3,1.5-11.5-0.5-16.2-4.3c0.9,1.8,2.2,3.3,3.6,4.6c2.1,2,4.7,3.4,7.3,4.6c2.4,1.1,4.9,1.7,7.6,1.3c1.9-0.3,3.4-1.5,3.8-3.1
			c-0.4,0.1-0.8,0.2-1.2,0.3c-1.7,0.3-3.3,0.6-5,0.2c-1-0.3-1-0.8-0.8-1.5C165.3,100.4,165.6,99.8,166,99z M149.8,94.5
			c-0.1,0-0.2-0.1-0.2-0.1l-0.1,0.1c0.1,0,0.2,0.1,0.2,0.1S149.8,94.6,149.8,94.5z"/>
		<path class="st0" d="M135.3,26c-0.5-1.2-1-2.3-1.4-3.5c-0.4-1-0.3-1.2,0.9-1c1.7,0.3,3.4,0.7,5,1.1c8.6,2.2,16.9,5,25.1,8.3
			c0.2,0.1,0.4,0.1,0.7,0.2c0.2,0,0.3,0.1,0.4-0.1c0.1-0.2,0.1-0.4-0.1-0.5c-0.5-0.5-1-0.9-1.7-1.2c-0.3-0.2-0.7-0.3-0.7-0.7
			c-0.1-1.4-0.2-2.7,0.2-4.1c0.1-0.5,0.3-0.6,0.8-0.5c2.8,0.8,5.3,2.1,7.5,4c0.4,0.3,0.7,0.7,1.2,0.9c2.5,1.6,3.8,3.9,4.4,6.6
			c0.2,1,0.8,1.7,1.7,2.2c4,2.4,7.7,5.3,11.5,8.1c1.9,1.4,3.5,3.1,5,4.9c0.4,0.5,0.4,0.7-0.2,1.1c-1.4,0.8-2.7,1.7-4.2,2.7
			c1.7,0.6,3.2,1.1,4.7,1.7c3.6,1.4,7.2,2.9,10.2,5.3c0.9,0.7,1.7,1.5,2.2,2.5c0.6,1.1,0.5,1.4-0.7,1.8c-2.3,0.8-4.6,0.7-7,0.3
			c-3.8-0.7-7.5-2.1-11.1-3.3c-2.6-0.9-5.2-1.8-8-1.7c-0.3,0-0.6,0-0.9,0.1c-0.2,0-0.4,0.1-0.8,0.2c1.5,0.9,3.1,1.3,4.6,1.7
			c3.5,0.9,6.4,2.8,9.1,5c1.8,1.5,2.1,3.4,1.1,5.6c-2.4,5.2-6.6,8.2-12.4,9c-4.9,0.7-9.9,0.3-14.4-1.5c-3.6-1.4-7.3-1.3-11-1.8
			c-1.4-0.2-2.8-0.2-4.2-0.4c-2.2-0.3-4.1,0.6-5.9,1.3c-4.3,1.7-8,4.2-11.6,7.1c-1.5,1.2-2.9,2.7-4.6,3.7c-0.5-3,1.2-6.3,4.1-7.7
			c-1.7-0.1-3.1,0.1-4.5,0.4c-5.6,1.1-10.6,3.5-15.5,6.2c-4.1,2.3-8,4.7-11.9,7.3c-0.6,0.4-1.4,1.1-1.8,0.8c-0.5-0.3,0-1.2,0.1-1.9
			c1.6-6.9,4.3-13.4,7.6-19.6c0.5-1,0.6-1-0.6-1.3c-2.2-0.6-4.4-0.9-6.7-1.1c-5-0.5-10-0.8-15-0.6c-4.3,0.2-8.6,0.5-12.9,0.7
			c-0.3,0-0.5,0-0.8,0c0-0.6,0.3-1,0.6-1.4c4.1-6.3,8.6-12.3,14.3-17.3c1.7-1.6,3.6-3,5-4.9c0.7-1,0.7-1-0.5-1.4
			c-8.3-2.6-16.7-4.5-25.1-6.5C58,40.4,48.8,38.7,39.6,37c-4.1-0.8-8.3-1.5-12.5-2.1c-0.4,0-0.8,0-0.9-0.5c-0.1-0.4,0.3-0.6,0.6-0.8
			c2.1-1,4.2-1.9,6.3-2.8C40,28,46.9,25.5,54,23.5c9.9-2.9,19.9-4.9,30.1-5.8c1.9-0.2,3.7-0.3,5.6-0.4c0.7-0.1,1.1,0.2,1.5,0.7
			c2.4,3.2,4.7,6.5,7.7,9.2c7.6,6.8,16,11.8,26.2,13.8c1.7,0.3,3.4,0.4,5.2,0.5c1,0,1-0.3,0.8-1.1c-0.7-2.5-2.1-4.6-3.7-6.7
			c-3.3-4.2-7.2-7.8-11.8-10.7c-1.4-0.9-2.8-1.6-4.4-2.1c-0.6-0.2-0.8-0.1-0.8,0.6c0.3,2.8,1.3,5.4,2.4,7.9c0.5,1.1,1,2.3,1.3,3.7
			c-1.7-1.4-3.1-2.8-4.4-4.3c-4.1-4.7-6.9-10.1-8.6-16c-0.2-0.6-0.2-1.3-0.4-1.9c-0.2-0.7,0.1-0.8,0.7-0.8c4.4,0,8.6,1,12.7,2.5
			c7.7,2.8,14.1,7.5,20.1,12.9c0.3,0.2,0.6,0.4,0.8,0.7c0,0.1,0.1,0.2,0.2,0.1C135.4,26.2,135.3,26.1,135.3,26z M178.9,53.5
			c-1.6,0-3.1,0-4.6,0c-3.3,0.1-6.4-0.6-9.5-1.9c-1.9-0.8-3.9-1.6-5.9-2c-3.7-0.9-7.5-1.3-11.2-0.4c-1.9,0.5-3.5,1.4-4.3,3.3
			c-0.5,1.2-0.4,1.4,0.9,1.7c0.5,0.1,1.1,0.3,1.6,0.4c5.7,1.1,11.5,1.9,17.3,2.7c3.3,0.5,6.7,0.9,10,0.2
			C175.7,57.1,177.7,56.1,178.9,53.5z"/>
		<path class="st0" d="M167.1,109.1c-0.9,1-2,1.7-3.1,2.3c-5,2.8-10.3,4.9-15.9,6.2c-0.7,0.2-0.9,0-0.9-0.7c0-5-2.1-9.1-5.3-12.8
			c-1.9-2.2-4.1-4.1-6.5-5.9c-0.7-0.5-0.5-0.8,0.1-1.2c1.8-1.2,3.9-1.5,6-1.8c1-0.1,2-0.2,3-0.3c0.6-0.1,0.9,0,1.1,0.6
			c2.2,5.1,6.3,8.4,11.3,10.7c3.1,1.4,6.3,2.3,9.7,2.8C166.8,109,166.9,109.1,167.1,109.1z"/>
		<path class="st0" d="M168.3,83.6c3.4,0.4,6.6,0.8,9.7,1.4c4.3,0.9,8.5,0.6,12.8,0.2c1.9-0.1,3.8-0.3,5.8-0.5
			c-1.5,2.9-2.3,6-5.2,8.2c-0.2-1.4-0.4-2.6-0.6-3.8c-0.3-1.6-1-2.1-2.6-2c-2.4,0.2-4.7,1-6.9,2.1c-2,0.9-3.8,2.1-5.8,3
			c-2.5,1.1-2,0.7-2-1.4c0-0.8,0.1-1.6-0.1-2.4c-0.1-0.7-0.3-1-1.2-0.9s-2.1,0.6-2.8,0c-0.6-0.5-0.6-1.7-0.8-2.6
			C168.5,84.6,168.4,84.2,168.3,83.6z"/>
		<path class="st0" d="M195.5,80c0.1-1.8,1.3-3.8,2.8-5.7c1.5-1.9,3.4-3.2,5.5-4.5c0.6-0.4,1.2-0.5,1.9-0.4c1.4,0.3,1.8,0.7,1.5,2.1
			c-1.1,5-3.8,8.7-8.8,10.5c-0.3,0.1-0.7,0.2-1.1,0.2C195.8,82.6,195.5,82.4,195.5,80z"/>
		<path class="st0" d="M166,99c-0.4,0.8-0.6,1.4-0.8,2c-0.2,0.7-0.2,1.2,0.8,1.5c1.7,0.5,3.3,0.2,5-0.2c0.4-0.1,0.8-0.2,1.2-0.3
			c-0.4,1.6-1.9,2.8-3.8,3.1c-2.7,0.4-5.2-0.1-7.6-1.3c-2.6-1.2-5.2-2.6-7.3-4.6c-1.4-1.3-2.7-2.8-3.6-4.6
			C154.5,98.5,159.6,100.5,166,99z"/>
		<path class="st0" d="M149.8,94.5c0,0.1-0.1,0.1-0.1,0.2c-0.1,0-0.2-0.1-0.2-0.1l0.1-0.1C149.6,94.5,149.7,94.5,149.8,94.5z"/>
		<path class="st0" d="M178.9,53.5c-1.1,2.5-3.2,3.6-5.7,4.1c-3.3,0.7-6.7,0.3-10-0.2c-5.8-0.8-11.6-1.6-17.3-2.7
			c-0.6-0.1-1.1-0.2-1.6-0.4c-1.3-0.3-1.4-0.5-0.9-1.7c0.8-1.9,2.3-2.9,4.3-3.3c3.8-0.9,7.5-0.5,11.2,0.4c2,0.5,4,1.2,5.9,2
			c3,1.3,6.2,1.9,9.5,1.9C175.8,53.5,177.3,53.5,178.9,53.5z"/>
		<path class="st0" d="M135.3,26c0,0.1,0.1,0.2,0.1,0.2c-0.1,0.1-0.2,0-0.2-0.1C135.2,26.1,135.3,26,135.3,26z"/>
	</g>
	<g>
		<path class="st1" d="M63.7,79.9c5.8-9.8,11.2-19.4,19-27.7c-2-1-4-1.5-6.1-2c-15.4-3.8-31-6.8-46.7-9.4c-5.9-1-11.8-1.6-17.7-2.6
			C11.1,38,10,37.9,9,37.4c1.8-1.5,3.8-2.5,5.8-3.5c6.6-3.5,13.3-7,20.2-9.7c8.9-3.5,18-6.4,27.3-8.4c10.6-2.3,21.3-3.6,32.1-4.3
			c0.7,0,0.8-0.3,0.7-0.9C95,9,94.9,7.4,94.8,5.8c-0.1-0.5,0.1-0.7,0.6-0.7c7.2-0.4,14.3,0.1,21.1,2.6c3.1,1.1,6,2.5,8.7,4.3
			c2.2,1.5,4.7,2.4,7.3,3.1c5,1.3,10.1,2.5,15.1,4.1c3.2,1,6.5,2,9.8,2.9c0.8,0.2,1.2,0.1,1.4-0.8c0.3-1.4,0.7-2.7,1.1-4.1
			c0.1-0.3,0.1-0.6,0.6-0.5c5.5,1.6,10.9,3.3,15.5,6.8c2.6,1.9,4.5,4.4,5.8,7.2c1.3,2.5,3.2,4.2,5.6,5.5c7.1,3.9,12.6,9.3,16.3,16.4
			c0.5,0.9,1.1,1.5,2.1,2c1.8,0.8,3.3,2,4.6,3.5c1.8,2,3.7,3.9,5.3,6.1c0.4,0.5,0.5,0.9,0,1.5c-0.7,0.9-1.5,1.8-2.4,2.6
			c-0.3,0.3-0.5,0.5-0.4,0.9c0.7,4.8-1.4,8.6-4.4,12.1c-1.3,1.5-2.6,2.9-4.3,3.9c-1.4,0.9-2.4,2.1-3.4,3.4c-3,3.8-6.7,6.8-11.5,8.4
			c-0.1,0-0.2,0-0.4,0.1c-0.1-0.7-0.1-1.5-0.3-2.2c-0.5-1.4-1.5-2-2.9-1.6c-2.2,0.6-3.9,2-5.7,3.3c-2.3,1.6-3.8,3.8-5.4,6
			c-0.9,1.2-1.7,2.4-2.6,3.6c-0.4,0.5-0.2,0.7,0.3,0.9c0.9,0.3,1.9,0.5,2.5,1.3c-4.7,5.4-23.3,12.7-33.7,13.3
			c1.9-3.5,0.7-6.8-0.9-9.9c-2.2-4.3-5.3-8-9.2-11.1c-1.1-0.9-1.2-0.9-2.2,0.1c-1.6,1.4-3.1,2.9-4.7,4.3c0-0.9,0.1-2,0.1-3.1
			c0.2-3.3,0.4-6.6,0.6-9.9c0-0.7-0.1-1-0.9-0.7c-3.6,1.3-6.9,3.3-10.3,5.1c-6.3,3.4-11.8,7.9-17.4,12.2c-0.8,0.6-1.6,1.3-2.4,1.9
			c-0.4,0.3-0.9,0.6-1.5,0.6c0.3-2.4,0.6-4.7,1-7.1c1.2-7,3.1-13.9,5.7-20.5c0.4-1,1.2-1.9,1.5-2.9c0.2-0.7,0.2-1-0.6-1.3
			c-1.6-0.5-3.3-0.6-4.9-0.7c-6.4-0.3-12.8,0.1-19.2,0.5c-3.7,0.2-7.5,0.5-11.2,0.8C64.6,79.9,64.3,79.9,63.7,79.9z M135.2,26.1
			c-0.3-0.2-0.6-0.4-0.8-0.7c-6-5.4-12.4-10.1-20.1-12.9C110.2,11,106,10,101.6,10c-0.6,0-0.9,0.1-0.7,0.8c0.2,0.6,0.2,1.3,0.4,1.9
			c1.7,5.9,4.5,11.3,8.6,16c1.3,1.5,2.7,2.9,4.4,4.3c-0.3-1.4-0.8-2.6-1.3-3.7c-1.1-2.6-2.1-5.1-2.4-7.9c-0.1-0.7,0.1-0.8,0.8-0.6
			c1.6,0.5,3,1.2,4.4,2.1c4.6,2.9,8.5,6.5,11.8,10.7c1.6,2,3,4.2,3.7,6.7c0.2,0.7,0.2,1.1-0.8,1.1c-1.7-0.1-3.5-0.1-5.2-0.5
			c-10.2-1.9-18.7-7-26.2-13.8c-3-2.7-5.3-6-7.7-9.2c-0.4-0.5-0.8-0.8-1.5-0.7c-1.9,0.2-3.7,0.3-5.6,0.4C74,18.5,64,20.5,54.2,23.4
			c-7.1,2.1-14,4.6-20.7,7.4c-2.1,0.9-4.2,1.9-6.3,2.8c-0.3,0.1-0.7,0.3-0.6,0.8c0.1,0.4,0.5,0.4,0.9,0.5c4.2,0.6,8.3,1.3,12.5,2.1
			c9.2,1.7,18.3,3.4,27.4,5.6c8.4,2,16.9,3.9,25.1,6.5c1.1,0.4,1.2,0.4,0.5,1.4c-1.4,1.9-3.2,3.4-5,4.9c-5.7,5.1-10.2,11-14.3,17.3
			c-0.3,0.4-0.6,0.8-0.6,1.4c0.3,0,0.6,0,0.8,0c4.3-0.2,8.6-0.5,12.9-0.7c5-0.2,10,0,15,0.6c2.2,0.2,4.5,0.5,6.7,1.1
			c1.1,0.3,1.1,0.3,0.6,1.3c-3.3,6.2-6,12.8-7.6,19.6c-0.1,0.6-0.6,1.5-0.1,1.9c0.4,0.3,1.2-0.4,1.8-0.8c3.9-2.6,7.8-5,11.9-7.3
			c4.9-2.7,9.9-5.1,15.5-6.2c1.4-0.3,2.9-0.5,4.5-0.4c-2.9,1.4-4.6,4.7-4.1,7.7c1.7-1,3.1-2.5,4.6-3.7c3.6-2.8,7.4-5.3,11.6-7.1
			c1.9-0.8,3.8-1.6,5.9-1.3c1.4,0.2,2.8,0.2,4.2,0.4c3.7,0.5,7.4,0.4,11,1.8c4.6,1.7,9.5,2.1,14.4,1.5c5.8-0.8,9.9-3.8,12.4-9
			c1-2.2,0.7-4-1.1-5.6c-2.7-2.3-5.6-4.1-9.1-5c-1.5-0.4-3.1-0.8-4.6-1.7c0.3-0.1,0.6-0.2,0.8-0.2c0.3,0,0.6-0.1,0.9-0.1
			c2.8,0,5.4,0.9,8,1.7c3.7,1.2,7.3,2.6,11.1,3.3c2.3,0.4,4.7,0.5,7-0.3c1.2-0.4,1.3-0.7,0.7-1.8c-0.5-1-1.3-1.8-2.2-2.5
			c-3.1-2.4-6.6-3.9-10.2-5.3c-1.5-0.6-3.1-1.1-4.7-1.7c1.5-1,2.8-1.8,4.2-2.7c0.5-0.3,0.6-0.6,0.2-1.1c-1.5-1.8-3.1-3.5-5-4.9
			c-3.8-2.8-7.4-5.7-11.5-8.1c-0.9-0.5-1.5-1.2-1.7-2.2c-0.6-2.7-2-5-4.4-6.6c-0.4-0.3-0.8-0.6-1.2-0.9c-2.2-1.9-4.7-3.2-7.5-4
			c-0.5-0.1-0.7,0-0.8,0.5c-0.4,1.3-0.3,2.7-0.2,4.1c0,0.4,0.4,0.6,0.7,0.7c0.6,0.3,1.2,0.8,1.7,1.2c0.2,0.2,0.2,0.3,0.1,0.5
			c-0.1,0.2-0.3,0.1-0.4,0.1c-0.2-0.1-0.5-0.1-0.7-0.2c-8.2-3.3-16.6-6.1-25.1-8.3c-1.7-0.4-3.4-0.8-5-1.1c-1.2-0.2-1.4,0-0.9,1
			c0.5,1.2,1,2.3,1.4,3.5C135.3,26,135.2,26.1,135.2,26.1z M167.1,109.1c-0.2-0.1-0.3-0.2-0.5-0.2c-3.4-0.5-6.6-1.4-9.7-2.8
			c-5.1-2.3-9.1-5.6-11.3-10.7c-0.3-0.6-0.6-0.7-1.1-0.6c-1,0.1-2,0.2-3,0.3c-2.1,0.3-4.2,0.7-6,1.8c-0.6,0.4-0.8,0.6-0.1,1.2
			c2.3,1.8,4.5,3.7,6.5,5.9c3.2,3.7,5.3,7.9,5.3,12.8c0,0.7,0.2,0.9,0.9,0.7c5.6-1.3,10.9-3.4,15.9-6.2
			C165.1,110.8,166.3,110.2,167.1,109.1z M168.3,83.6c0.1,0.6,0.3,1,0.4,1.4c0.2,0.9,0.2,2,0.8,2.6s1.8,0.1,2.8,0
			c0.8-0.1,1.1,0.2,1.2,0.9c0.1,0.8,0.1,1.6,0.1,2.4c-0.1,2.1-0.5,2.4,2,1.4c2-0.8,3.8-2,5.8-3c2.2-1,4.5-1.8,6.9-2.1
			c1.6-0.2,2.4,0.4,2.6,2c0.2,1.2,0.4,2.5,0.6,3.8c2.9-2.2,3.7-5.3,5.2-8.2c-2,0.2-3.9,0.3-5.8,0.5c-4.3,0.3-8.5,0.7-12.8-0.2
			C174.8,84.4,171.6,84,168.3,83.6z M195.5,80c0,2.4,0.3,2.6,1.9,2.3c0.4-0.1,0.7-0.1,1.1-0.2c5-1.8,7.7-5.5,8.8-10.5
			c0.3-1.4-0.1-1.8-1.5-2.1c-0.7-0.1-1.3,0-1.9,0.4c-2,1.2-4,2.6-5.5,4.5C196.8,76.2,195.6,78.2,195.5,80z M166,99
			c-6.3,1.5-11.5-0.5-16.2-4.3c0.9,1.8,2.2,3.3,3.6,4.6c2.1,2,4.7,3.4,7.3,4.6c2.4,1.1,4.9,1.7,7.6,1.3c1.9-0.3,3.4-1.5,3.8-3.1
			c-0.4,0.1-0.8,0.2-1.2,0.3c-1.7,0.3-3.3,0.6-5,0.2c-1-0.3-1-0.8-0.8-1.5C165.3,100.4,165.6,99.8,166,99z M149.8,94.5
			c-0.1,0-0.2-0.1-0.2-0.1l-0.1,0.1c0.1,0,0.2,0.1,0.2,0.1S149.8,94.6,149.8,94.5z"/>
		<path class="st2" d="M135.3,26c-0.5-1.2-1-2.3-1.4-3.5c-0.4-1-0.3-1.2,0.9-1c1.7,0.3,3.4,0.7,5,1.1c8.6,2.2,16.9,5,25.1,8.3
			c0.2,0.1,0.4,0.1,0.7,0.2c0.2,0,0.3,0.1,0.4-0.1c0.1-0.2,0.1-0.4-0.1-0.5c-0.5-0.5-1-0.9-1.7-1.2c-0.3-0.2-0.7-0.3-0.7-0.7
			c-0.1-1.4-0.2-2.7,0.2-4.1c0.1-0.5,0.3-0.6,0.8-0.5c2.8,0.8,5.3,2.1,7.5,4c0.4,0.3,0.7,0.7,1.2,0.9c2.5,1.6,3.8,3.9,4.4,6.6
			c0.2,1,0.8,1.7,1.7,2.2c4,2.4,7.7,5.3,11.5,8.1c1.9,1.4,3.5,3.1,5,4.9c0.4,0.5,0.4,0.7-0.2,1.1c-1.4,0.8-2.7,1.7-4.2,2.7
			c1.7,0.6,3.2,1.1,4.7,1.7c3.6,1.4,7.2,2.9,10.2,5.3c0.9,0.7,1.7,1.5,2.2,2.5c0.6,1.1,0.5,1.4-0.7,1.8c-2.3,0.8-4.6,0.7-7,0.3
			c-3.8-0.7-7.5-2.1-11.1-3.3c-2.6-0.9-5.2-1.8-8-1.7c-0.3,0-0.6,0-0.9,0.1c-0.2,0-0.4,0.1-0.8,0.2c1.5,0.9,3.1,1.3,4.6,1.7
			c3.5,0.9,6.4,2.8,9.1,5c1.8,1.5,2.1,3.4,1.1,5.6c-2.4,5.2-6.6,8.2-12.4,9c-4.9,0.7-9.9,0.3-14.4-1.5c-3.6-1.4-7.3-1.3-11-1.8
			c-1.4-0.2-2.8-0.2-4.2-0.4c-2.2-0.3-4.1,0.6-5.9,1.3c-4.3,1.7-8,4.2-11.6,7.1c-1.5,1.2-2.9,2.7-4.6,3.7c-0.5-3,1.2-6.3,4.1-7.7
			c-1.7-0.1-3.1,0.1-4.5,0.4c-5.6,1.1-10.6,3.5-15.5,6.2c-4.1,2.3-8,4.7-11.9,7.3c-0.6,0.4-1.4,1.1-1.8,0.8c-0.5-0.3,0-1.2,0.1-1.9
			c1.6-6.9,4.3-13.4,7.6-19.6c0.5-1,0.6-1-0.6-1.3c-2.2-0.6-4.4-0.9-6.7-1.1c-5-0.5-10-0.8-15-0.6c-4.3,0.2-8.6,0.5-12.9,0.7
			c-0.3,0-0.5,0-0.8,0c0-0.6,0.3-1,0.6-1.4c4.1-6.3,8.6-12.3,14.3-17.3c1.7-1.6,3.6-3,5-4.9c0.7-1,0.7-1-0.5-1.4
			c-8.3-2.6-16.7-4.5-25.1-6.5C58,40.4,48.8,38.7,39.6,37c-4.1-0.8-8.3-1.5-12.5-2.1c-0.4,0-0.8,0-0.9-0.5c-0.1-0.4,0.3-0.6,0.6-0.8
			c2.1-1,4.2-1.9,6.3-2.8C40,28,46.9,25.5,54,23.5c9.9-2.9,19.9-4.9,30.1-5.8c1.9-0.2,3.7-0.3,5.6-0.4c0.7-0.1,1.1,0.2,1.5,0.7
			c2.4,3.2,4.7,6.5,7.7,9.2c7.6,6.8,16,11.8,26.2,13.8c1.7,0.3,3.4,0.4,5.2,0.5c1,0,1-0.3,0.8-1.1c-0.7-2.5-2.1-4.6-3.7-6.7
			c-3.3-4.2-7.2-7.8-11.8-10.7c-1.4-0.9-2.8-1.6-4.4-2.1c-0.6-0.2-0.8-0.1-0.8,0.6c0.3,2.8,1.3,5.4,2.4,7.9c0.5,1.1,1,2.3,1.3,3.7
			c-1.7-1.4-3.1-2.8-4.4-4.3c-4.1-4.7-6.9-10.1-8.6-16c-0.2-0.6-0.2-1.3-0.4-1.9c-0.2-0.7,0.1-0.8,0.7-0.8c4.4,0,8.6,1,12.7,2.5
			c7.7,2.8,14.1,7.5,20.1,12.9c0.3,0.2,0.6,0.4,0.8,0.7c0,0.1,0.1,0.2,0.2,0.1C135.4,26.2,135.3,26.1,135.3,26z M178.9,53.5
			c-1.6,0-3.1,0-4.6,0c-3.3,0.1-6.4-0.6-9.5-1.9c-1.9-0.8-3.9-1.6-5.9-2c-3.7-0.9-7.5-1.3-11.2-0.4c-1.9,0.5-3.5,1.4-4.3,3.3
			c-0.5,1.2-0.4,1.4,0.9,1.7c0.5,0.1,1.1,0.3,1.6,0.4c5.7,1.1,11.5,1.9,17.3,2.7c3.3,0.5,6.7,0.9,10,0.2
			C175.7,57.1,177.7,56.1,178.9,53.5z"/>
		<path class="st2" d="M167.1,109.1c-0.9,1-2,1.7-3.1,2.3c-5,2.8-10.3,4.9-15.9,6.2c-0.7,0.2-0.9,0-0.9-0.7c0-5-2.1-9.1-5.3-12.8
			c-1.9-2.2-4.1-4.1-6.5-5.9c-0.7-0.5-0.5-0.8,0.1-1.2c1.8-1.2,3.9-1.5,6-1.8c1-0.1,2-0.2,3-0.3c0.6-0.1,0.9,0,1.1,0.6
			c2.2,5.1,6.3,8.4,11.3,10.7c3.1,1.4,6.3,2.3,9.7,2.8C166.8,109,166.9,109.1,167.1,109.1z"/>
		<path class="st3" d="M168.3,83.6c3.4,0.4,6.6,0.8,9.7,1.4c4.3,0.9,8.5,0.6,12.8,0.2c1.9-0.1,3.8-0.3,5.8-0.5
			c-1.5,2.9-2.3,6-5.2,8.2c-0.2-1.4-0.4-2.6-0.6-3.8c-0.3-1.6-1-2.1-2.6-2c-2.4,0.2-4.7,1-6.9,2.1c-2,0.9-3.8,2.1-5.8,3
			c-2.5,1.1-2,0.7-2-1.4c0-0.8,0.1-1.6-0.1-2.4c-0.1-0.7-0.3-1-1.2-0.9s-2.1,0.6-2.8,0c-0.6-0.5-0.6-1.7-0.8-2.6
			C168.5,84.6,168.4,84.2,168.3,83.6z"/>
		<path class="st2" d="M195.5,80c0.1-1.8,1.3-3.8,2.8-5.7c1.5-1.9,3.4-3.2,5.5-4.5c0.6-0.4,1.2-0.5,1.9-0.4c1.4,0.3,1.8,0.7,1.5,2.1
			c-1.1,5-3.8,8.7-8.8,10.5c-0.3,0.1-0.7,0.2-1.1,0.2C195.8,82.6,195.5,82.4,195.5,80z"/>
		<path class="st3" d="M166,99c-0.4,0.8-0.6,1.4-0.8,2c-0.2,0.7-0.2,1.2,0.8,1.5c1.7,0.5,3.3,0.2,5-0.2c0.4-0.1,0.8-0.2,1.2-0.3
			c-0.4,1.6-1.9,2.8-3.8,3.1c-2.7,0.4-5.2-0.1-7.6-1.3c-2.6-1.2-5.2-2.6-7.3-4.6c-1.4-1.3-2.7-2.8-3.6-4.6
			C154.5,98.5,159.6,100.5,166,99z"/>
		<path class="st3" d="M149.8,94.5c0,0.1-0.1,0.1-0.1,0.2c-0.1,0-0.2-0.1-0.2-0.1l0.1-0.1C149.6,94.5,149.7,94.5,149.8,94.5z"/>
		<path class="st1" d="M178.9,53.5c-1.1,2.5-3.2,3.6-5.7,4.1c-3.3,0.7-6.7,0.3-10-0.2c-5.8-0.8-11.6-1.6-17.3-2.7
			c-0.6-0.1-1.1-0.2-1.6-0.4c-1.3-0.3-1.4-0.5-0.9-1.7c0.8-1.9,2.3-2.9,4.3-3.3c3.8-0.9,7.5-0.5,11.2,0.4c2,0.5,4,1.2,5.9,2
			c3,1.3,6.2,1.9,9.5,1.9C175.8,53.5,177.3,53.5,178.9,53.5z"/>
		<path class="st1" d="M135.3,26c0,0.1,0.1,0.2,0.1,0.2c-0.1,0.1-0.2,0-0.2-0.1C135.2,26.1,135.3,26,135.3,26z"/>
	</g>
</g>
<g>
	<path class="st4" d="M250.9,90.4V30.5h9.6l11.7,25.6c2.9,6.3,5.7,13.5,7.8,19.7l0.2,0c-0.6-7.9-0.8-16-0.8-25.6V30.5h8.1v59.8h-8.9
		l-11.8-26.1c-2.8-6.2-5.8-13.5-8-20.2l-0.2,0c0.4,7.5,0.5,15.6,0.5,26.2v20H250.9z"/>
	<path class="st4" d="M303.2,71.6c0.2,8.4,4.9,11.6,10.3,11.6c3.8,0,6.6-0.8,9-1.9l1.3,7.3c-2.9,1.5-7,2.5-11.7,2.5
		c-11.1,0-17.5-8.5-17.5-21.8c0-12.6,6-23.2,16.6-23.2c10.6,0,14.5,10.5,14.5,20.7c0,2.2-0.1,3.7-0.3,4.7H303.2z M317.4,64.3
		c0-4.9-1.6-10.7-6.7-10.7c-5,0-7.1,6.1-7.5,10.7H317.4z"/>
	<path class="st4" d="M362.9,77.5c0,5,0.1,9.3,0.3,12.8h-7.7l-0.5-5.9h-0.2c-1.5,2.9-4.9,6.8-10.6,6.8c-6.7,0-11.7-5.1-11.7-18.4
		V47.1h8.9v24.1c0,6.9,1.6,11.4,6,11.4c3.3,0,5.4-2.9,6.2-5.4c0.3-1,0.5-2.2,0.5-3.5V47.1h8.9V77.5z"/>
	<path class="st4" d="M394.1,85H394c-1.9,3.8-5.3,6.3-10,6.3c-7.7,0-13.9-8.6-13.9-21.8c0-15.5,7.6-23.2,15-23.2
		c4.3,0,7.6,2.2,9.5,6.3l0.1,0l0.3-5.5h8.3c-0.1,3.8-0.3,8-0.3,12.8v47.8h-8.8V85z M394.1,64.4c0-0.9-0.1-1.9-0.2-2.7
		c-0.7-3.9-3.3-7.1-6.8-7.1c-5.3,0-8.1,6-8.1,14.2c0,8,2.8,14,8,14c3,0,5.7-2.3,6.8-6.6c0.3-1,0.4-2.3,0.4-3.3V64.4z"/>
	<path class="st4" d="M442.3,77.5c0,5,0.1,9.3,0.3,12.8h-7.7l-0.5-5.9h-0.2c-1.5,2.9-4.9,6.8-10.6,6.8c-6.7,0-11.7-5.1-11.7-18.4
		V47.1h8.9v24.1c0,6.9,1.6,11.4,6,11.4c3.3,0,5.4-2.9,6.2-5.4c0.3-1,0.5-2.2,0.5-3.5V47.1h8.9V77.5z"/>
	<path class="st4" d="M470.6,90.4l-0.6-4.7h-0.2c-2.1,3.4-5.6,5.6-9.8,5.6c-6.7,0-10.8-5.9-10.8-12.8c0-11,8.1-16.2,20-16.2v-0.8
		c0-3.3-1.1-7.6-6.8-7.6c-3.3,0-6.6,1.2-8.9,3l-1.7-6.9c2.5-1.8,6.9-3.6,12.3-3.6c11,0,14.1,8.4,14.1,17.8v16.1
		c0,3.8,0.1,7.5,0.5,10.2H470.6z M469.3,69c-5.5-0.1-11.5,1.4-11.5,8.3c0,4.4,2.3,6.4,4.9,6.4c3.2,0,5.6-2.5,6.4-5.7
		c0.2-0.7,0.2-1.6,0.2-2.3V69z"/>
	<path class="st4" d="M509.8,90.4L495,30.5h9.7l6.1,27.1c1.7,7.3,3.2,14.5,4.4,21.8h0.2c1.1-7.2,2.8-14.6,4.4-21.7l6.4-27.1h9.5
		l-15.7,59.8H509.8z"/>
	<path class="st4" d="M556.8,90.4l-0.6-4.7H556c-2.1,3.4-5.6,5.6-9.8,5.6c-6.7,0-10.8-5.9-10.8-12.8c0-11,8.1-16.2,20-16.2v-0.8
		c0-3.3-1.1-7.6-6.8-7.6c-3.3,0-6.6,1.2-8.9,3l-1.7-6.9c2.5-1.8,6.9-3.6,12.3-3.6c11,0,14.1,8.4,14.1,17.8v16.1
		c0,3.8,0.1,7.5,0.5,10.2H556.8z M555.6,69c-5.5-0.1-11.5,1.4-11.5,8.3c0,4.4,2.3,6.4,4.9,6.4c3.2,0,5.6-2.5,6.4-5.7
		c0.2-0.7,0.2-1.6,0.2-2.3V69z"/>
	<path class="st4" d="M573.3,27.8h8.9v62.6h-8.9V27.8z"/>
	<path class="st4" d="M591.5,27.8h8.9v62.6h-8.9V27.8z"/>
	<path class="st4" d="M616.1,71.6c0.2,8.4,4.9,11.6,10.3,11.6c3.8,0,6.6-0.8,9-1.9l1.3,7.3c-2.9,1.5-7,2.5-11.7,2.5
		c-11.1,0-17.5-8.5-17.5-21.8c0-12.6,6-23.2,16.6-23.2c10.6,0,14.5,10.5,14.5,20.7c0,2.2-0.1,3.7-0.3,4.7H616.1z M630.3,64.3
		c0-4.9-1.6-10.7-6.7-10.7c-5,0-7.1,6.1-7.5,10.7H630.3z"/>
	<path class="st4" d="M650.9,47.1l5.8,23.3c0.7,2.7,1.3,5.8,1.8,8.3h0.2c0.5-2.4,1.1-5.5,1.7-8.3l5.1-23.2h9.2L666.4,77
		c-4.1,14.1-7.2,21.9-11.4,26.8c-3.4,3.9-7,5.5-9,5.9l-2.2-8.9c1.6-0.6,3.5-1.7,5.2-3.4c1.6-1.5,3.4-4,4.5-6.7
		c0.3-0.8,0.5-1.4,0.5-1.9c0-0.5-0.1-1.1-0.4-2l-12.3-39.8H650.9z"/>
	<path class="st4" d="M726.9,88.8c-2,1.2-6.1,2.3-11.4,2.3c-14.7,0-23.5-11.7-23.5-30c0-20.7,11.2-31.5,24.7-31.5
		c5.2,0,8.9,1.3,10.5,2.3l-1.8,8.5c-2-1.1-4.7-2-8.3-2c-8.9,0-15.7,7.1-15.7,22.1c0,14.1,6.1,21.6,15.7,21.6c3.2,0,6.5-0.8,8.5-1.8
		L726.9,88.8z"/>
	<path class="st4" d="M764.3,68.4c0,16.4-8.9,22.8-17,22.8c-9.5,0-16.7-8.2-16.7-22.3c0-14.6,7.5-22.8,17.2-22.8
		C757.6,46.2,764.3,55,764.3,68.4z M739.6,68.8c0,8,2.8,14.7,7.9,14.7c4.9,0,7.7-6.8,7.7-14.8c0-6.6-2-14.7-7.7-14.7
		C741.7,54,739.6,61.8,739.6,68.8z"/>
	<path class="st4" d="M771.4,59.8c0-5-0.1-8.9-0.3-12.6h7.6l0.4,6h0.2c1.8-3.3,5-6.9,10.4-6.9c4.5,0,7.9,2.9,9.4,7.4h0.1
		c1.2-2.2,2.6-4,4.2-5.2c1.9-1.5,4-2.3,6.7-2.3c6,0,11.3,5,11.3,17.9v26.2h-8.7V65.8c0-6.6-1.6-11-5.8-11c-2.8,0-4.9,2.4-5.8,5.5
		c-0.3,1-0.4,2.3-0.4,3.6v26.4h-8.7V64.6c0-5.4-1.6-9.8-5.6-9.8c-3,0-5.2,2.8-6,5.9c-0.3,1-0.4,2.3-0.4,3.6v26.1h-8.7V59.8z"/>
	<path class="st4" d="M830.5,61.2c0-5.7-0.1-10.2-0.3-14.1h7.8l0.4,6.2h0.1c2.4-4.6,6.2-7.1,11.1-7.1c8,0,14,8.7,14,22.1
		c0,15.7-7.5,23-15.1,23c-4.2,0-7.4-2.3-9-5.4h-0.2v21.9h-8.8V61.2z M839.4,72.9c0,1.1,0.1,2.2,0.3,3.2c0.9,4.4,3.8,6.9,6.9,6.9
		c5.3,0,8.1-6.1,8.1-14.3c0-7.9-2.7-14-8-14c-3.3,0-6.3,3.1-7,7.3c-0.2,0.9-0.3,1.9-0.3,2.9V72.9z"/>
	<path class="st4" d="M901,77.5c0,5,0.1,9.3,0.3,12.8h-7.7l-0.5-5.9h-0.2c-1.5,2.9-4.9,6.8-10.6,6.8c-6.7,0-11.7-5.1-11.7-18.4V47.1
		h8.9v24.1c0,6.9,1.6,11.4,6,11.4c3.3,0,5.4-2.9,6.2-5.4c0.3-1,0.5-2.2,0.5-3.5V47.1h8.9V77.5z"/>
	<path class="st4" d="M920.4,35v12.1h8.3v7.8h-8.3V75c0,5.3,1.4,7.6,4.4,7.6c1.4,0,2.4-0.2,3.2-0.4l0.2,8c-1.3,0.6-3.5,1-6.3,1
		c-3.1,0-5.8-1.2-7.5-3.3c-1.9-2.4-2.8-6.1-2.8-12v-21h-5v-7.8h5v-9.6L920.4,35z"/>
	<path class="st4" d="M944.3,35.3c0,3.3-1.9,5.8-5,5.8c-2.8,0-4.8-2.5-4.8-5.8c0-3.3,2-5.8,4.9-5.8
		C942.4,29.5,944.3,31.9,944.3,35.3z M935,90.4V47.1h8.9v43.2H935z"/>
	<path class="st4" d="M953.1,59.8c0-5-0.1-8.9-0.3-12.6h7.7l0.4,6.1h0.2c1.7-3.4,5.3-7,10.7-7c6.3,0,11.9,5.1,11.9,17.7v26.5h-8.9
		V65.1c0-5.6-1.6-10.2-6.1-10.2c-3.2,0-5.5,2.7-6.4,6.1c-0.3,0.9-0.4,2.3-0.4,3.6v25.8h-8.9V59.8z"/>
	<path class="st4" d="M1023.6,47.1c-0.2,3.1-0.3,6.9-0.3,12.8v24.5c0,9.4-1.5,15.3-5,19.2c-3.4,3.7-8.2,5.1-13.1,5.1
		c-4.2,0-8.6-1.1-11.5-3l1.9-8c2.1,1.5,5.6,2.9,9.5,2.9c5.6,0,9.5-3.7,9.5-12.7v-3.6h-0.1c-1.8,3.5-5.2,5.9-9.5,5.9
		c-8.5,0-14.2-9.1-14.2-21.1c0-14.5,7.2-22.8,15.1-22.8c4.9,0,7.8,2.9,9.4,6.3h0.2l0.4-5.4H1023.6z M1014.4,63.9
		c0-1.1-0.1-2.1-0.3-3c-0.8-3.5-3-6.4-6.5-6.4c-4.7,0-7.9,5.5-7.9,14.2c0,8,2.9,13.5,7.9,13.5c2.9,0,5.4-2.1,6.4-6
		c0.3-1.1,0.4-2.6,0.4-3.8V63.9z"/>
	<path class="st4" d="M1053.2,39.6h-12.8v-9h34.6v9H1062v50.8h-8.9V39.6z"/>
	<path class="st4" d="M1081.5,71.6c0.2,8.4,4.9,11.6,10.3,11.6c3.8,0,6.6-0.8,9-1.9l1.3,7.3c-2.9,1.5-7,2.5-11.7,2.5
		c-11.1,0-17.5-8.5-17.5-21.8c0-12.6,6-23.2,16.6-23.2c10.6,0,14.5,10.5,14.5,20.7c0,2.2-0.1,3.7-0.3,4.7H1081.5z M1095.7,64.3
		c0-4.9-1.6-10.7-6.7-10.7c-5,0-7.1,6.1-7.5,10.7H1095.7z"/>
	<path class="st4" d="M1129.9,90.4l-0.6-4.7h-0.2c-2.1,3.4-5.6,5.6-9.8,5.6c-6.7,0-10.8-5.9-10.8-12.8c0-11,8.1-16.2,20-16.2v-0.8
		c0-3.3-1.1-7.6-6.8-7.6c-3.3,0-6.6,1.2-8.9,3l-1.7-6.9c2.5-1.8,6.9-3.6,12.3-3.6c11,0,14.1,8.4,14.1,17.8v16.1
		c0,3.8,0.1,7.5,0.5,10.2H1129.9z M1128.7,69c-5.5-0.1-11.5,1.4-11.5,8.3c0,4.4,2.3,6.4,4.9,6.4c3.2,0,5.6-2.5,6.4-5.7
		c0.2-0.7,0.2-1.6,0.2-2.3V69z"/>
	<path class="st4" d="M1146.4,59.8c0-5-0.1-8.9-0.3-12.6h7.6l0.4,6h0.2c1.8-3.3,5-6.9,10.4-6.9c4.5,0,7.9,2.9,9.4,7.4h0.1
		c1.2-2.2,2.6-4,4.2-5.2c1.9-1.5,4-2.3,6.7-2.3c6,0,11.3,5,11.3,17.9v26.2h-8.7V65.8c0-6.6-1.6-11-5.8-11c-2.8,0-4.9,2.4-5.8,5.5
		c-0.3,1-0.4,2.3-0.4,3.6v26.4h-8.7V64.6c0-5.4-1.6-9.8-5.6-9.8c-3,0-5.2,2.8-6,5.9c-0.3,1-0.4,2.3-0.4,3.6v26.1h-8.7V59.8z"/>
</g>
</svg>
